<?xml version="1.0" encoding="UTF-8" standalone="no"?>
<!-- Created with Inkscape (http://www.inkscape.org/) -->

<svg
   xmlns:dc="http://purl.org/dc/elements/1.1/"
   xmlns:cc="http://creativecommons.org/ns#"
   xmlns:rdf="http://www.w3.org/1999/02/22-rdf-syntax-ns#"
   xmlns:svg="http://www.w3.org/2000/svg"
   xmlns="http://www.w3.org/2000/svg"
   xmlns:xlink="http://www.w3.org/1999/xlink"
   xmlns:sodipodi="http://sodipodi.sourceforge.net/DTD/sodipodi-0.dtd"
   xmlns:inkscape="http://www.inkscape.org/namespaces/inkscape"
   width="500"
   height="500"
   viewBox="0 0 132.29166 132.29167"
   version="1.1"
   id="svg8"
   inkscape:version="0.92.4 (f8dce91, 2019-08-02)"
   sodipodi:docname="edit.svg">
  <defs
     id="defs2">
    <inkscape:path-effect
       effect="powerstroke"
       id="path-effect1715"
       is_visible="true"
       offset_points="0,0.13229166"
       sort_points="true"
       interpolator_type="CubicBezierJohan"
       interpolator_beta="0.2"
       start_linecap_type="zerowidth"
       linejoin_type="extrp_arc"
       miter_limit="4"
       end_linecap_type="zerowidth" />
    <linearGradient
       id="linearGradient1711"
       inkscape:collect="always">
      <stop
         id="stop1707"
         offset="0"
         style="stop-color:#ff0000;stop-opacity:1" />
      <stop
         id="stop1709"
         offset="1"
         style="stop-color:#00ffff;stop-opacity:1" />
    </linearGradient>
    <linearGradient
       inkscape:collect="always"
       id="linearGradient1701">
      <stop
         style="stop-color:#ff0000;stop-opacity:1"
         offset="0"
         id="stop1697" />
      <stop
         style="stop-color:#ffff00;stop-opacity:1"
         offset="1"
         id="stop1699" />
    </linearGradient>
    <linearGradient
       inkscape:collect="always"
       id="linearGradient1689">
      <stop
         style="stop-color:#ffff00;stop-opacity:1"
         offset="0"
         id="stop1685" />
      <stop
         style="stop-color:#00ffff;stop-opacity:1"
         offset="1"
         id="stop1687" />
    </linearGradient>
    <linearGradient
       inkscape:collect="always"
       id="linearGradient1677">
      <stop
         style="stop-color:#800000;stop-opacity:1"
         offset="0"
         id="stop1673" />
      <stop
         style="stop-color:#ff0000;stop-opacity:1"
         offset="1"
         id="stop1675" />
    </linearGradient>
    <linearGradient
       inkscape:collect="always"
       id="linearGradient1667">
      <stop
         style="stop-color:#800000;stop-opacity:1"
         offset="0"
         id="stop1663" />
      <stop
         style="stop-color:#00ffff;stop-opacity:1"
         offset="1"
         id="stop1665" />
    </linearGradient>
    <linearGradient
       inkscape:collect="always"
       id="linearGradient1566">
      <stop
         style="stop-color:#ff0000;stop-opacity:1"
         offset="0"
         id="stop1562" />
      <stop
         style="stop-color:#999999;stop-opacity:1"
         offset="1"
         id="stop1564" />
    </linearGradient>
    <linearGradient
       inkscape:collect="always"
       id="linearGradient1556">
      <stop
         style="stop-color:#00ff00;stop-opacity:1"
         offset="0"
         id="stop1552" />
      <stop
         style="stop-color:#ff00ff;stop-opacity:1"
         offset="1"
         id="stop1554" />
    </linearGradient>
    <linearGradient
       id="linearGradient1546"
       inkscape:collect="always">
      <stop
         id="stop1542"
         offset="0"
         style="stop-color:#0000ff;stop-opacity:1" />
      <stop
         id="stop1544"
         offset="1"
         style="stop-color:#800000;stop-opacity:1" />
    </linearGradient>
    <linearGradient
       inkscape:collect="always"
       id="linearGradient1536">
      <stop
         style="stop-color:#ffff00;stop-opacity:1"
         offset="0"
         id="stop1532" />
      <stop
         style="stop-color:#0000ff;stop-opacity:1"
         offset="1"
         id="stop1534" />
    </linearGradient>
    <linearGradient
       id="linearGradient1526"
       inkscape:collect="always">
      <stop
         id="stop1522"
         offset="0"
         style="stop-color:#ff00ff;stop-opacity:1" />
      <stop
         id="stop1524"
         offset="1"
         style="stop-color:#800000;stop-opacity:1" />
    </linearGradient>
    <linearGradient
       inkscape:collect="always"
       id="linearGradient1514">
      <stop
         style="stop-color:#ffff00;stop-opacity:1"
         offset="0"
         id="stop1510" />
      <stop
         style="stop-color:#808080;stop-opacity:1"
         offset="1"
         id="stop1512" />
    </linearGradient>
    <linearGradient
       inkscape:collect="always"
       id="linearGradient1504">
      <stop
         style="stop-color:#00ffff;stop-opacity:1"
         offset="0"
         id="stop1500" />
      <stop
         style="stop-color:#00ff00;stop-opacity:1"
         offset="1"
         id="stop1502" />
    </linearGradient>
    <linearGradient
       inkscape:collect="always"
       id="linearGradient1494">
      <stop
         style="stop-color:#00ffff;stop-opacity:1"
         offset="0"
         id="stop1490" />
      <stop
         style="stop-color:#ff00ff;stop-opacity:1"
         offset="1"
         id="stop1492" />
    </linearGradient>
    <linearGradient
       id="linearGradient1484"
       inkscape:collect="always">
      <stop
         id="stop1480"
         offset="0"
         style="stop-color:#ff00ff;stop-opacity:1" />
      <stop
         id="stop1482"
         offset="1"
         style="stop-color:#00ffff;stop-opacity:1" />
    </linearGradient>
    <linearGradient
       inkscape:collect="always"
       id="linearGradient1472">
      <stop
         style="stop-color:#0000ff;stop-opacity:1"
         offset="0"
         id="stop1468" />
      <stop
         style="stop-color:#ff00ff;stop-opacity:1"
         offset="1"
         id="stop1470" />
    </linearGradient>
    <linearGradient
       id="linearGradient960"
       inkscape:collect="always">
      <stop
         id="stop956"
         offset="0"
         style="stop-color:#00ff00;stop-opacity:1" />
      <stop
         id="stop958"
         offset="1"
         style="stop-color:#ffff00;stop-opacity:1" />
    </linearGradient>
    <linearGradient
       inkscape:collect="always"
       id="linearGradient950">
      <stop
         style="stop-color:#ff0000;stop-opacity:1"
         offset="0"
         id="stop946" />
      <stop
         style="stop-color:#00ff00;stop-opacity:1"
         offset="1"
         id="stop948" />
    </linearGradient>
    <linearGradient
       id="linearGradient940"
       inkscape:collect="always">
      <stop
         id="stop936"
         offset="0"
         style="stop-color:#ffff00;stop-opacity:1" />
      <stop
         id="stop938"
         offset="1"
         style="stop-color:#800000;stop-opacity:1" />
    </linearGradient>
    <linearGradient
       inkscape:collect="always"
       id="linearGradient896">
      <stop
         style="stop-color:#ff0000;stop-opacity:1"
         offset="0"
         id="stop892" />
      <stop
         style="stop-color:#00ffff;stop-opacity:1"
         offset="1"
         id="stop894" />
    </linearGradient>
    <linearGradient
       inkscape:collect="always"
       id="linearGradient826">
      <stop
         style="stop-color:#666666;stop-opacity:1"
         offset="0"
         id="stop822" />
      <stop
         style="stop-color:#000000;stop-opacity:1"
         offset="1"
         id="stop824" />
    </linearGradient>
    <radialGradient
       inkscape:collect="always"
       xlink:href="#linearGradient826"
       id="radialGradient828"
       cx="66.145836"
       cy="230.85416"
       fx="66.145836"
       fy="230.85416"
       r="66.278128"
       gradientUnits="userSpaceOnUse"
       gradientTransform="matrix(1.9960077,0,1.3681322e-8,1.9960081,-65.944636,-229.9326)" />
    <linearGradient
       inkscape:collect="always"
       xlink:href="#linearGradient896"
       id="linearGradient898"
       x1="6.1324134"
       y1="184.70711"
       x2="26.87949"
       y2="184.86368"
       gradientUnits="userSpaceOnUse"
       gradientTransform="translate(-1.8846263,0.12207936)" />
    <linearGradient
       inkscape:collect="always"
       xlink:href="#linearGradient940"
       id="linearGradient924"
       gradientUnits="userSpaceOnUse"
       gradientTransform="matrix(0.74618395,0,0,0.99999357,36.535531,16.120573)"
       x1="6.1324134"
       y1="184.70711"
       x2="26.87949"
       y2="184.86368" />
    <linearGradient
       inkscape:collect="always"
       xlink:href="#linearGradient950"
       id="linearGradient944"
       gradientUnits="userSpaceOnUse"
       gradientTransform="matrix(0.70672386,0,0,0.93815301,174.62192,-56.295815)"
       x1="6.1324134"
       y1="184.70711"
       x2="26.87949"
       y2="184.86368" />
    <linearGradient
       inkscape:collect="always"
       xlink:href="#linearGradient960"
       id="linearGradient954"
       gradientUnits="userSpaceOnUse"
       gradientTransform="matrix(0.63372015,0,0,0.85092625,-121.68134,39.105317)"
       x1="6.1324134"
       y1="184.70711"
       x2="27.457472"
       y2="184.84239" />
    <linearGradient
       inkscape:collect="always"
       xlink:href="#linearGradient1472"
       id="linearGradient1466"
       gradientUnits="userSpaceOnUse"
       gradientTransform="matrix(0.85508872,0,0,1.0006192,42.974914,34.447825)"
       x1="6.1324134"
       y1="184.70711"
       x2="26.87949"
       y2="184.86368" />
    <linearGradient
       inkscape:collect="always"
       xlink:href="#linearGradient1484"
       id="linearGradient1478"
       gradientUnits="userSpaceOnUse"
       gradientTransform="matrix(0.95359264,0,0,1.0008186,65.257771,37.399926)"
       x1="6.1324134"
       y1="184.70711"
       x2="26.87949"
       y2="184.86368" />
    <linearGradient
       inkscape:collect="always"
       xlink:href="#linearGradient1494"
       id="linearGradient1488"
       gradientUnits="userSpaceOnUse"
       gradientTransform="matrix(0.95359264,0,0,1.0008186,86.621418,42.326805)"
       x1="6.1324134"
       y1="184.70711"
       x2="26.87949"
       y2="184.86368" />
    <linearGradient
       inkscape:collect="always"
       xlink:href="#linearGradient1504"
       id="linearGradient1498"
       gradientUnits="userSpaceOnUse"
       gradientTransform="matrix(0.5695742,0,0,0.845051,-190.60839,30.251739)"
       x1="6.1324134"
       y1="184.70711"
       x2="26.87949"
       y2="184.86368" />
    <linearGradient
       inkscape:collect="always"
       xlink:href="#linearGradient1514"
       id="linearGradient1508"
       gradientUnits="userSpaceOnUse"
       gradientTransform="matrix(0.63372015,0,0,0.85092625,71.038384,49.339917)"
       x1="6.1324134"
       y1="184.70711"
       x2="26.87949"
       y2="184.86368" />
    <linearGradient
       inkscape:collect="always"
       xlink:href="#linearGradient1526"
       id="linearGradient1520"
       gradientUnits="userSpaceOnUse"
       gradientTransform="matrix(0.53038405,0,0,0.89377314,-219.76747,-116.34572)"
       x1="6.1324134"
       y1="184.70711"
       x2="26.87949"
       y2="184.86368" />
    <linearGradient
       inkscape:collect="always"
       xlink:href="#linearGradient1536"
       id="linearGradient1530"
       gradientUnits="userSpaceOnUse"
       gradientTransform="matrix(0.51467381,0,0,0.99868527,197.81088,-248.13664)"
       x1="6.1324134"
       y1="184.70711"
       x2="26.87949"
       y2="184.86368" />
    <linearGradient
       inkscape:collect="always"
       xlink:href="#linearGradient1546"
       id="linearGradient1540"
       gradientUnits="userSpaceOnUse"
       gradientTransform="matrix(0.97598961,0,0,0.98008088,-114.13114,23.818897)"
       x1="6.1324134"
       y1="184.70711"
       x2="26.87949"
       y2="184.86368" />
    <linearGradient
       inkscape:collect="always"
       xlink:href="#linearGradient1556"
       id="linearGradient1550"
       gradientUnits="userSpaceOnUse"
       gradientTransform="matrix(0.82906398,0,1.5026263e-8,1.0536867,204.42281,-66.257061)"
       x1="6.1324134"
       y1="184.70711"
       x2="27.457472"
       y2="184.84239" />
    <linearGradient
       inkscape:collect="always"
       xlink:href="#linearGradient1566"
       id="linearGradient1560"
       gradientUnits="userSpaceOnUse"
       gradientTransform="matrix(0.63372015,0,0,0.85092625,-209.08,-157.47006)"
       x1="6.1324134"
       y1="184.70711"
       x2="27.457472"
       y2="184.84239" />
    <linearGradient
       inkscape:collect="always"
       xlink:href="#linearGradient1667"
       id="linearGradient1661"
       gradientUnits="userSpaceOnUse"
       gradientTransform="matrix(0.62742156,0,0,1.0273185,-210.33979,-186.38738)"
       x1="6.1324134"
       y1="184.70711"
       x2="26.87949"
       y2="184.86368" />
    <linearGradient
       inkscape:collect="always"
       xlink:href="#linearGradient1677"
       id="linearGradient1671"
       gradientUnits="userSpaceOnUse"
       gradientTransform="matrix(0.70583405,0,0,0.95540099,-33.49437,31.714641)"
       x1="6.1324134"
       y1="184.70711"
       x2="26.87949"
       y2="184.86368" />
    <linearGradient
       inkscape:collect="always"
       xlink:href="#linearGradient1689"
       id="linearGradient1683"
       gradientUnits="userSpaceOnUse"
       gradientTransform="matrix(0.87272073,0,-1.2161374e-8,0.90329312,-52.817756,11.801552)"
       x1="6.1324134"
       y1="184.70711"
       x2="26.87949"
       y2="184.86368" />
    <linearGradient
       inkscape:collect="always"
       xlink:href="#linearGradient1701"
       id="linearGradient1695"
       gradientUnits="userSpaceOnUse"
       gradientTransform="matrix(0.95912776,0,0,1.0088175,86.183587,17.682935)"
       x1="6.1324134"
       y1="184.70711"
       x2="26.87949"
       y2="184.86368" />
    <linearGradient
       inkscape:collect="always"
       xlink:href="#linearGradient1711"
       id="linearGradient1705"
       gradientUnits="userSpaceOnUse"
       gradientTransform="matrix(0.91295795,0,-1.4931048e-8,1.1715572,208.48126,-219.10916)"
       x1="6.1324134"
       y1="184.70711"
       x2="26.87949"
       y2="184.86368" />
  </defs>
  <sodipodi:namedview
     id="base"
     pagecolor="#ffffff"
     bordercolor="#666666"
     borderopacity="1.0"
     inkscape:pageopacity="0.0"
     inkscape:pageshadow="2"
     inkscape:zoom="1.052"
     inkscape:cx="39.37224"
     inkscape:cy="255.52737"
     inkscape:document-units="mm"
     inkscape:current-layer="g3054"
     showgrid="true"
     units="px"
     inkscape:snap-global="false"
     inkscape:window-width="1329"
     inkscape:window-height="713"
     inkscape:window-x="37"
     inkscape:window-y="27"
     inkscape:window-maximized="1">
    <inkscape:grid
       visible="false"
       spacingy="2.6458333"
       spacingx="2.6458333"
       id="grid10"
       type="xygrid" />
  </sodipodi:namedview>
  <metadata
     id="metadata5">
    <rdf:RDF>
      <cc:Work
         rdf:about="">
        <dc:format>image/svg+xml</dc:format>
        <dc:type
           rdf:resource="http://purl.org/dc/dcmitype/StillImage" />
        <dc:title></dc:title>
      </cc:Work>
    </rdf:RDF>
  </metadata>
  <g
     inkscape:label="Layer 1"
     inkscape:groupmode="layer"
     id="layer1"
     transform="translate(0,-164.70832)">
    <rect
       style="opacity:1;fill:url(#radialGradient828);fill-opacity:1;stroke:#000000;stroke-width:0.26458332;stroke-linejoin:bevel;stroke-miterlimit:4.30000019;stroke-dasharray:none;stroke-opacity:1"
       id="rect12"
       width="132.29167"
       height="132.29167"
       x="-0.062876269"
       y="164.70833"
       ry="7.4689757e-07" />
    <rect
       style="opacity:1;fill:url(#linearGradient898);fill-opacity:1;stroke:none;stroke-width:0.26458332;stroke-linejoin:bevel;stroke-miterlimit:4.30000019;stroke-dasharray:none;stroke-opacity:1"
       id="rect890"
       width="35.024597"
       height="1.5140638"
       x="-0.8714053"
       y="184.09676"
       ry="4.2740757e-07"
       transform="rotate(-4.0213433)" />
    <circle
       style="opacity:1;fill:#ff0000;fill-opacity:1;stroke:none;stroke-width:0.26458332;stroke-linejoin:bevel;stroke-miterlimit:4.30000019;stroke-dasharray:none;stroke-opacity:1"
       id="path830"
       cx="11.90625"
       cy="184.55208"
       r="1.3229166" />
    <rect
       transform="matrix(0.99850163,0.05472205,-0.05152831,0.99867153,0,0)"
       ry="4.2740481e-07"
       y="200.09406"
       x="37.291584"
       height="1.5140541"
       width="26.134792"
       id="rect922"
       style="opacity:1;fill:url(#linearGradient924);fill-opacity:1;stroke:none;stroke-width:0.264584;stroke-linejoin:bevel;stroke-miterlimit:4.30000019;stroke-dasharray:none;stroke-opacity:1" />
    <rect
       style="opacity:1;fill:url(#linearGradient1530);fill-opacity:1;stroke:none;stroke-width:0.21959497;stroke-linejoin:bevel;stroke-miterlimit:4.30000019;stroke-dasharray:none;stroke-opacity:1"
       id="rect1528"
       width="18.026243"
       height="1.5120732"
       x="198.3324"
       y="-64.404022"
       ry="4.2684565e-07"
       transform="matrix(-0.18428441,0.98287296,-0.99195685,-0.12657649,0,0)"
       inkscape:transform-center-x="1.6641388"
       inkscape:transform-center-y="9.1405514" />
    <circle
       r="1.3229166"
       cy="202.5435"
       cx="26.722937"
       id="circle832"
       style="opacity:1;fill:#ffff00;fill-opacity:1;stroke:none;stroke-width:0.26458332;stroke-linejoin:bevel;stroke-miterlimit:4.30000019;stroke-dasharray:none;stroke-opacity:1" />
    <rect
       style="opacity:1;fill:url(#linearGradient1466);fill-opacity:1;stroke:none;stroke-width:0.28332311;stroke-linejoin:bevel;stroke-miterlimit:4.30000019;stroke-dasharray:none;stroke-opacity:1"
       id="rect1464"
       width="29.949139"
       height="1.5150015"
       x="43.841331"
       y="218.53665"
       ry="4.2767226e-07"
       transform="matrix(0.99701746,0.07717628,-0.09120382,0.99583225,0,0)"
       inkscape:transform-center-x="-15.027428"
       inkscape:transform-center-y="1.0688966" />
    <rect
       inkscape:transform-center-y="-8.634219"
       inkscape:transform-center-x="-14.856682"
       transform="matrix(0.86725715,-0.49786046,0.59295716,0.80523401,0,0)"
       ry="4.1889405e-07"
       y="204.12923"
       x="-113.14223"
       height="1.4839052"
       width="34.183643"
       id="rect1538"
       style="opacity:1;fill:url(#linearGradient1540);fill-opacity:1;stroke:none;stroke-width:0.29956809;stroke-linejoin:bevel;stroke-miterlimit:4.30000019;stroke-dasharray:none;stroke-opacity:1" />
    <circle
       style="opacity:1;fill:#0000d4;fill-opacity:1;stroke:none;stroke-width:0.26458332;stroke-linejoin:bevel;stroke-miterlimit:4.30000019;stroke-dasharray:none;stroke-opacity:1"
       id="circle834"
       cx="23.018766"
       cy="221.59325"
       r="1.3229166" />
    <rect
       inkscape:transform-center-y="0.46517365"
       inkscape:transform-center-x="-16.794923"
       transform="matrix(0.99944597,0.03328296,-0.05471822,0.99850184,0,0)"
       ry="4.2775747e-07"
       y="221.52515"
       x="66.223969"
       height="1.5153034"
       width="33.399197"
       id="rect1476"
       style="opacity:1;fill:url(#linearGradient1478);fill-opacity:1;stroke:none;stroke-width:0.29922721;stroke-linejoin:bevel;stroke-miterlimit:4.30000019;stroke-dasharray:none;stroke-opacity:1" />
    <rect
       inkscape:transform-center-x="0.311743"
       inkscape:transform-center-y="-8.9853151"
       transform="matrix(-0.02475544,-0.99969354,0.995911,0.09033982,0,0)"
       ry="3.8200542e-07"
       y="48.085205"
       x="-219.23048"
       height="1.3532296"
       width="18.576488"
       id="rect1516"
       style="opacity:1;fill:url(#linearGradient1520);fill-opacity:1;stroke:none;stroke-width:0.24807318;stroke-linejoin:bevel;stroke-miterlimit:4.30000019;stroke-dasharray:none;stroke-opacity:1" />
    <circle
       r="1.3229166"
       cy="224.1133"
       cx="53.710461"
       id="circle836"
       style="opacity:1;fill:#ff00ff;fill-opacity:1;stroke:none;stroke-width:0.26458332;stroke-linejoin:bevel;stroke-miterlimit:4.30000019;stroke-dasharray:none;stroke-opacity:1" />
    <circle
       style="opacity:1;fill:#008000;fill-opacity:1;stroke:none;stroke-width:0.26458332;stroke-linejoin:bevel;stroke-miterlimit:4.30000019;stroke-dasharray:none;stroke-opacity:1"
       id="circle838"
       cx="73.28965"
       cy="246.9929"
       r="1.3229166" />
    <circle
       r="1.3229166"
       cy="249.10954"
       cx="39.422947"
       id="circle840"
       style="opacity:1;fill:#ffff00;fill-opacity:1;stroke:none;stroke-width:0.26458332;stroke-linejoin:bevel;stroke-miterlimit:4.30000019;stroke-dasharray:none;stroke-opacity:1" />
    <circle
       style="opacity:1;fill:#ff0000;fill-opacity:1;stroke:none;stroke-width:0.26458332;stroke-linejoin:bevel;stroke-miterlimit:4.30000019;stroke-dasharray:none;stroke-opacity:1"
       id="circle842"
       cx="23.018766"
       cy="267.63046"
       r="1.3229166" />
    <circle
       r="1.3229166"
       cy="242.75964"
       cx="11.377097"
       id="circle844"
       style="opacity:1;fill:#00ff00;fill-opacity:1;stroke:none;stroke-width:0.26458332;stroke-linejoin:bevel;stroke-miterlimit:4.30000019;stroke-dasharray:none;stroke-opacity:1" />
    <rect
       inkscape:transform-center-x="-5.8969269"
       inkscape:transform-center-y="-8.9636622"
       transform="matrix(0.55624239,-0.8310201,0.83401277,0.55174514,0,0)"
       ry="3.6369232e-07"
       y="195.65387"
       x="-121.03938"
       height="1.2883567"
       width="22.195793"
       id="rect952"
       style="opacity:1;fill:url(#linearGradient954);fill-opacity:1;stroke:none;stroke-width:0.26458526;stroke-linejoin:bevel;stroke-miterlimit:4.30000019;stroke-dasharray:none;stroke-opacity:1" />
    <circle
       style="opacity:1;fill:#ffff00;fill-opacity:1;stroke:none;stroke-width:0.26458332;stroke-linejoin:bevel;stroke-miterlimit:4.30000019;stroke-dasharray:none;stroke-opacity:1"
       id="circle846"
       cx="108.74381"
       cy="190.37285"
       r="1.3229166" />
    <rect
       style="opacity:1;fill:url(#linearGradient944);fill-opacity:1;stroke:none;stroke-width:0.26461983;stroke-linejoin:bevel;stroke-miterlimit:4.30000019;stroke-dasharray:none;stroke-opacity:1"
       id="rect942"
       width="24.752718"
       height="1.4204235"
       x="175.33792"
       y="116.30016"
       ry="4.009737e-07"
       transform="matrix(0.82384567,0.56681418,-0.58600734,0.81030574,0,0)"
       inkscape:transform-center-y="-0.41314203"
       inkscape:transform-center-x="5.8403724e-06" />
    <rect
       style="opacity:1;fill:url(#linearGradient1560);fill-opacity:1;stroke:none;stroke-width:0.26458526;stroke-linejoin:bevel;stroke-miterlimit:4.30000019;stroke-dasharray:none;stroke-opacity:1"
       id="rect1558"
       width="22.195793"
       height="1.2883567"
       x="-208.43797"
       y="-0.92142308"
       ry="3.6369232e-07"
       transform="matrix(-0.36460973,-0.93116043,0.92917724,-0.3696345,0,0)"
       inkscape:transform-center-y="-9.9593475"
       inkscape:transform-center-x="3.9915573" />
    <circle
       r="1.3229166"
       cy="194.07697"
       cx="75.935455"
       id="circle848"
       style="opacity:1;fill:#ff0000;fill-opacity:1;stroke:none;stroke-width:0.26458332;stroke-linejoin:bevel;stroke-miterlimit:4.30000019;stroke-dasharray:none;stroke-opacity:1" />
    <rect
       style="opacity:1;fill:url(#linearGradient1661);fill-opacity:1;stroke:none;stroke-width:0.28926986;stroke-linejoin:bevel;stroke-miterlimit:4.30000019;stroke-dasharray:none;stroke-opacity:1"
       id="rect1659"
       width="21.975187"
       height="1.5554258"
       x="-209.70445"
       y="2.6123505"
       ry="4.3908372e-07"
       transform="matrix(-0.23786219,-0.97129891,0.99770319,-0.06773732,0,0)"
       inkscape:transform-center-y="-10.311024"
       inkscape:transform-center-x="2.629786" />
    <circle
       style="opacity:1;fill:#00ffff;fill-opacity:1;stroke:none;stroke-width:0.26458332;stroke-linejoin:bevel;stroke-miterlimit:4.30000019;stroke-dasharray:none;stroke-opacity:1"
       id="circle850"
       cx="47.88958"
       cy="181.9063"
       r="1.3229166" />
    <circle
       r="1.3229166"
       cy="204.131"
       cx="53.181263"
       id="circle852"
       style="opacity:1;fill:#800000;fill-opacity:1;stroke:none;stroke-width:0.26458332;stroke-linejoin:bevel;stroke-miterlimit:4.30000019;stroke-dasharray:none;stroke-opacity:1" />
    <circle
       style="opacity:1;fill:#00ff00;fill-opacity:1;stroke:none;stroke-width:0.26458332;stroke-linejoin:bevel;stroke-miterlimit:4.30000019;stroke-dasharray:none;stroke-opacity:1"
       id="circle854"
       cx="96.572975"
       cy="208.36427"
       r="1.3229166" />
    <circle
       r="1.3229166"
       cy="224.23906"
       cx="121.97297"
       id="circle856"
       style="opacity:1;fill:#ff00ff;fill-opacity:1;stroke:none;stroke-width:0.26458332;stroke-linejoin:bevel;stroke-miterlimit:4.30000019;stroke-dasharray:none;stroke-opacity:1" />
    <circle
       style="opacity:1;fill:#00ffff;fill-opacity:1;stroke:none;stroke-width:0.26458332;stroke-linejoin:bevel;stroke-miterlimit:4.30000019;stroke-dasharray:none;stroke-opacity:1"
       id="circle858"
       cx="87.577133"
       cy="225.29738"
       r="1.3229166" />
    <circle
       r="1.3229166"
       cy="253.34283"
       cx="99.218811"
       id="circle860"
       style="opacity:1;fill:#ff0000;fill-opacity:1;stroke:none;stroke-width:0.26458332;stroke-linejoin:bevel;stroke-miterlimit:4.30000019;stroke-dasharray:none;stroke-opacity:1" />
    <circle
       style="opacity:1;fill:#800080;fill-opacity:1;stroke:none;stroke-width:0.26458332;stroke-linejoin:bevel;stroke-miterlimit:4.30000019;stroke-dasharray:none;stroke-opacity:1"
       id="circle862"
       cx="115.62296"
       cy="277.68478"
       r="1.3229166" />
    <circle
       r="1.3229166"
       cy="276.09726"
       cx="75.406273"
       id="circle864"
       style="opacity:1;fill:#00ffff;fill-opacity:1;stroke:none;stroke-width:0.26458332;stroke-linejoin:bevel;stroke-miterlimit:4.30000019;stroke-dasharray:none;stroke-opacity:1" />
    <circle
       style="opacity:1;fill:#0000ff;fill-opacity:1;stroke:none;stroke-width:0.26458332;stroke-linejoin:bevel;stroke-miterlimit:4.30000019;stroke-dasharray:none;stroke-opacity:1"
       id="circle866"
       cx="49.477081"
       cy="273.45139"
       r="1.3229166" />
    <circle
       r="1.3229166"
       cy="287.20993"
       cx="31.485397"
       id="circle868"
       style="opacity:1;fill:#ff00ff;fill-opacity:1;stroke:none;stroke-width:0.26458332;stroke-linejoin:bevel;stroke-miterlimit:4.30000019;stroke-dasharray:none;stroke-opacity:1" />
    <circle
       style="opacity:1;fill:#666666;fill-opacity:1;stroke:none;stroke-width:0.26458332;stroke-linejoin:bevel;stroke-miterlimit:4.30000019;stroke-dasharray:none;stroke-opacity:1"
       id="circle870"
       cx="96.043793"
       cy="291.44333"
       r="1.3229166" />
    <circle
       r="1.3229166"
       cy="291.44333"
       cx="96.043793"
       id="circle872"
       style="opacity:1;fill:#808000;fill-opacity:1;stroke:none;stroke-width:0.26458332;stroke-linejoin:bevel;stroke-miterlimit:4.30000019;stroke-dasharray:none;stroke-opacity:1" />
    <rect
       style="opacity:1;fill:url(#linearGradient1488);fill-opacity:1;stroke:none;stroke-width:0.29922721;stroke-linejoin:bevel;stroke-miterlimit:4.30000019;stroke-dasharray:none;stroke-opacity:1"
       id="rect1486"
       width="33.399197"
       height="1.5153034"
       x="87.587608"
       y="226.45169"
       ry="4.2775747e-07"
       transform="matrix(0.9997385,-0.02286766,0.0014132,0.999999,0,0)"
       inkscape:transform-center-x="-16.794553"
       inkscape:transform-center-y="-0.47824698" />
    <rect
       style="opacity:1;fill:url(#linearGradient1498);fill-opacity:1;stroke:none;stroke-width:0.2499698;stroke-linejoin:bevel;stroke-miterlimit:4.30000019;stroke-dasharray:none;stroke-opacity:1"
       id="rect1496"
       width="19.949106"
       height="1.2794611"
       x="-190.03152"
       y="185.71916"
       ry="3.6118121e-07"
       transform="matrix(0.4730189,-0.88105228,0.95080828,0.30977994,0,0)"
       inkscape:transform-center-y="-8.5227255"
       inkscape:transform-center-x="-4.4808323" />
    <rect
       style="opacity:1;fill:url(#linearGradient1508);fill-opacity:1;stroke:none;stroke-width:0.26458526;stroke-linejoin:bevel;stroke-miterlimit:4.30000019;stroke-dasharray:none;stroke-opacity:1"
       id="rect1506"
       width="22.195793"
       height="1.2883567"
       x="71.680214"
       y="205.88864"
       ry="3.6369232e-07"
       transform="matrix(0.98386505,-0.17891219,0.18422438,0.98288421,0,0)"
       inkscape:transform-center-y="-2.0036871"
       inkscape:transform-center-x="-10.540694" />
    <rect
       style="opacity:1;fill:url(#linearGradient1550);fill-opacity:1;stroke:none;stroke-width:0.3367601;stroke-linejoin:bevel;stroke-miterlimit:4.30000019;stroke-dasharray:none;stroke-opacity:1"
       id="rect1548"
       width="29.037632"
       height="1.5953491"
       x="205.26276"
       y="127.59413"
       ry="4.5035367e-07"
       transform="matrix(0.85361406,0.52090597,-0.60824753,0.7937474,0,0)"
       inkscape:transform-center-y="7.2278909"
       inkscape:transform-center-x="-12.046563" />
    <rect
       style="opacity:1;fill:url(#linearGradient1671);fill-opacity:1;stroke:none;stroke-width:0.25152791;stroke-linejoin:bevel;stroke-miterlimit:4.30000019;stroke-dasharray:none;stroke-opacity:1"
       id="rect1669"
       width="24.721552"
       height="1.4465381"
       x="-32.779194"
       y="207.48422"
       ry="4.0834558e-07"
       transform="matrix(0.91341725,-0.40702448,0.39995891,0.91653307,0,0)"
       inkscape:transform-center-x="-11.491174"
       inkscape:transform-center-y="-5.2268079" />
    <rect
       style="opacity:1;fill:url(#linearGradient1683);fill-opacity:1;stroke:none;stroke-width:0.27195311;stroke-linejoin:bevel;stroke-miterlimit:4.30000019;stroke-dasharray:none;stroke-opacity:1"
       id="rect1681"
       width="30.566692"
       height="1.3676436"
       x="-51.933491"
       y="177.98462"
       ry="3.8607436e-07"
       transform="matrix(0.72247681,-0.69139515,0.35618961,0.9344137,0,0)"
       inkscape:transform-center-x="-10.955523"
       inkscape:transform-center-y="-11.173211" />
    <rect
       style="opacity:1;fill:url(#linearGradient1695);fill-opacity:1;stroke:none;stroke-width:0.30129123;stroke-linejoin:bevel;stroke-miterlimit:4.30000019;stroke-dasharray:none;stroke-opacity:1"
       id="rect1691"
       width="33.593063"
       height="1.5274142"
       x="87.155388"
       y="203.27975"
       ry="4.3117626e-07"
       transform="matrix(0.99367818,-0.11226612,-0.05428436,0.99852552,0,0)"
       inkscape:transform-center-x="-16.794921"
       inkscape:transform-center-y="-1.9916164" />
    <rect
       inkscape:transform-center-x="-0.28677662"
       inkscape:transform-center-y="-0.44513814"
       transform="matrix(0.35211385,0.93595718,-0.93361239,0.35828468,0,0)"
       ry="5.0073243e-07"
       y="-3.5728321"
       x="209.40623"
       height="1.7738123"
       width="31.975983"
       id="rect1703"
       style="opacity:1;fill:url(#linearGradient1705);fill-opacity:1;stroke:none;stroke-width:0.33609945;stroke-linejoin:bevel;stroke-miterlimit:4.30000019;stroke-dasharray:none;stroke-opacity:1" />
    <path
       id="path1713"
       d="m -61.61874,179.04411 c 0,0 -0.06272,-0.11648 -0.06272,-0.11648 -0.877917,0.47272 -2.382817,1.201 -3.436828,1.86565 -1.013897,0.63936 -2.07101,1.4692 -2.894645,2.70688 -0.561323,0.8425 -1.141134,1.93231 -1.712816,3.22183 -0.557766,1.25814 -1.108514,2.70826 -1.622354,4.2963 -0.991597,3.06457 -1.855288,6.67605 -2.325988,10.32063 -0.451687,3.49736 -0.545217,7.06492 -5.54e-4,10.12006 0.26559,1.48975 0.684426,2.86523 1.29322,4.0488 0.599313,1.16513 1.38491,2.14843 2.393542,2.86838 1.983264,1.41563 4.392521,2.53612 7.052767,3.31375 2.587983,0.75651 5.409753,1.18672 8.266665,1.23968 2.787673,0.0517 5.610919,-0.25639 8.249381,-0.97424 2.581848,-0.70246 4.993583,-1.7997 6.999093,-3.33845 1.312806,-1.0088 2.4647,-2.18499 3.656624,-3.40664 1.141366,-1.16984 2.314204,-2.37567 3.630179,-3.39339 0.802436,-0.62156 1.680525,-1.12318 2.576625,-1.67796 0.867669,-0.53719 1.732387,-1.11335 2.45507,-1.86094 0.57997,-0.59828 1.184653,-1.47545 1.782892,-2.55836 0.596869,-1.08043 1.188928,-2.36864 1.74403,-3.7937 1.10564,-2.83841 2.066634,-6.22531 2.620523,-9.58498 0.551305,-3.34399 0.700149,-6.66749 0.17906,-9.38359 -0.259974,-1.35508 -0.687258,-2.56182 -1.316931,-3.54435 -0.629307,-0.98195 -1.460641,-1.73961 -2.527013,-2.19605 -2.508765,-1.07289 -5.218327,-1.7969 -7.962479,-2.4246 -2.742949,-0.62741 -5.516645,-1.15812 -8.147334,-1.8422 -0.431244,-0.11141 -1.070748,-0.27621 -1.761296,-0.46108 -0.692626,-0.18543 -1.433126,-0.39013 -2.064057,-0.58065 -0.31633,-0.0955 -0.604447,-0.18726 -0.844991,-0.27111 -0.120466,-0.042 -0.228756,-0.0819 -0.32255,-0.11926 -0.09403,-0.0375 -0.172872,-0.0721 -0.234573,-0.10335 -0.03086,-0.0156 -0.05701,-0.0302 -0.07841,-0.0438 -0.0216,-0.0136 -0.03732,-0.0254 -0.04797,-0.0354 -0.0053,-0.005 -0.0088,-0.009 -0.01104,-0.0119 -0.0022,-0.003 -0.0028,-0.004 -0.0027,-0.004 1.21e-4,6.2e-4 7.28e-4,0.003 1.18e-4,0.007 -6.21e-4,0.004 -0.0021,0.006 -0.0031,0.008 -8.3e-4,10e-4 -4.68e-4,10e-5 0.0021,-0.002 0.0027,-0.002 0.0071,-0.004 0.01385,-0.007 0.01368,-0.005 0.03388,-0.0109 0.06197,-0.0156 0.05617,-0.009 0.137499,-0.0147 0.247456,-0.015 1.673281,-0.001 3.005621,-0.39363 4.130889,-1.03695 1.132717,-0.64757 2.057245,-1.55044 2.90453,-2.56369 0.849664,-1.0161 1.641451,-2.16931 2.472837,-3.28049 0.847313,-1.13246 1.747405,-2.2385 2.838563,-3.20004 0.995729,-0.87895 2.390104,-1.74118 3.66954,-2.69669 0.65473,-0.48897 1.277667,-0.99961 1.814817,-1.55027 0.545951,-0.55967 0.998678,-1.15613 1.304274,-1.80543 1.226788,-2.6001 1.689233,-4.85046 1.877467,-6.66658 0.09573,-0.92358 0.121445,-1.74612 0.136585,-2.45066 0.0154,-0.71681 0.01999,-1.31189 0.07258,-1.79431 0.02641,-0.24228 0.06474,-0.45362 0.121946,-0.63423 0.05753,-0.18163 0.13393,-0.33151 0.235771,-0.45001 0.102364,-0.11911 0.230855,-0.20701 0.392719,-0.26329 0.163091,-0.0567 0.360323,-0.0814 0.598806,-0.073 0.481932,0.0169 1.129858,0.16881 1.995106,0.45929 0.876535,0.29426 1.976988,0.73116 3.345645,1.31136 1.316362,0.55483 2.686937,1.22696 3.77573,1.75258 2.424864,1.17429 4.7408723,2.77268 6.4655942,4.65134 0.9561661,1.04152 1.7090923,2.14371 2.2320869,3.29253 0.577109,1.2677 0.8613517,2.56319 0.8613517,3.87308 0,-1.30987 -0.2839905,-2.60541 -0.8607037,-3.87337 -0.5226418,-1.14909 -1.275122,-2.25173 -2.2308626,-3.29395 -1.7239908,-1.87999 -4.0391925,-3.48025 -6.4637795,-4.65721 -1.085192,-0.52842 -2.456643,-1.20792 -3.769437,-1.7685 -1.368483,-0.58101 -2.46941,-1.019 -3.346703,-1.3144 -0.865462,-0.29142 -1.516529,-0.44529 -2.002929,-0.46325 -0.240978,-0.009 -0.442344,0.0155 -0.610309,0.0734 -0.167092,0.0576 -0.300735,0.14833 -0.407376,0.27174 -0.105879,0.12252 -0.184559,0.2766 -0.243484,0.46119 -0.05856,0.18346 -0.09767,0.39722 -0.124664,0.64075 -0.05368,0.48436 -0.05916,1.08168 -0.07544,1.79736 -0.01602,0.70426 -0.04262,1.52546 -0.139076,2.44725 -0.189634,1.81229 -0.652879,4.05719 -1.878744,6.65094 -0.304392,0.64244 -0.754974,1.23335 -1.299497,1.78881 -0.535786,0.54655 -1.157476,1.05381 -1.812122,1.54027 -1.279029,0.95043 -2.675241,1.80838 -3.681024,2.69078 -1.09798,0.96489 -2.003116,2.07428 -2.853149,3.20697 -0.83579,1.11372 -1.625517,2.26068 -2.474961,3.27334 -0.845798,1.0083 -1.76419,1.90117 -2.885364,2.53977 -1.112563,0.6337 -2.429817,1.02019 -4.087204,1.01914 -0.111907,-2.5e-4 -0.199122,0.005 -0.262826,0.0147 -0.03177,0.005 -0.05935,0.0116 -0.08188,0.0203 -0.01135,0.004 -0.02216,0.01 -0.03189,0.0159 -0.0097,0.006 -0.01915,0.0142 -0.02681,0.0244 -0.0079,0.0104 -0.01355,0.0227 -0.01568,0.0366 -0.0021,0.0138 -3.79e-4,0.0269 0.0035,0.0387 0.0038,0.0115 0.0096,0.0219 0.01609,0.0309 0.0065,0.009 0.01427,0.0177 0.02269,0.0257 0.01672,0.016 0.03799,0.0319 0.06248,0.0477 0.02465,0.0159 0.05358,0.0323 0.08624,0.0491 0.06523,0.0337 0.146972,0.0701 0.242367,0.10863 0.09538,0.0386 0.204977,0.0795 0.326245,0.12233 0.242125,0.0855 0.531469,0.17874 0.848277,0.2755 0.631965,0.19302 1.373161,0.40009 2.065686,0.58769 0.690744,0.18711 1.329811,0.35397 1.760559,0.46743 2.634841,0.68954 5.409023,1.2246 8.147923,1.85544 2.741252,0.63138 5.439809,1.35729 7.934934,2.42893 1.035876,0.44453 1.844824,1.18183 2.459363,2.14268 0.615788,0.9628 1.036614,2.15056 1.293078,3.49291 0.514297,2.69186 0.365842,5.99524 -0.185972,9.32944 -0.554116,3.34811 -1.514119,6.72367 -2.617711,9.55108 -0.55405,1.41948 -1.144053,2.70033 -1.737497,3.77241 -0.595657,1.07608 -1.192818,1.93829 -1.758823,2.5207 -0.709765,0.72827 -1.561047,1.2916 -2.428735,1.82403 -0.890458,0.54641 -1.784443,1.05276 -2.599769,1.67921 -1.331269,1.02444 -2.516555,2.23773 -3.658921,3.40315 -1.196495,1.22064 -2.340654,2.38304 -3.641568,3.37808 -1.979735,1.51661 -4.364841,2.60103 -6.925064,3.29575 -2.616126,0.70989 -5.417951,1.01417 -8.18646,0.96111 -2.8372,-0.0544 -5.638258,-0.48339 -8.205236,-1.23549 -2.639032,-0.77322 -5.022522,-1.88476 -6.97956,-3.28363 -0.9713,-0.69429 -1.733101,-1.64593 -2.317734,-2.78422 -0.594293,-1.15711 -1.006152,-2.50834 -1.267954,-3.98117 -0.53716,-3.02192 -0.44454,-6.5622 0.0067,-10.04549 0.470014,-3.62783 1.33141,-7.2239 2.319906,-10.27471 0.512154,-1.58068 1.06044,-3.0222 1.614707,-4.27093 0.568462,-1.2807 1.142143,-2.35642 1.69346,-3.18288 0.797974,-1.19475 1.823498,-1.99974 2.821158,-2.62722 1.043011,-0.656 2.527318,-1.37234 3.422623,-1.85443 0,0 -0.06272,-0.11648 -0.06272,-0.11648 z"
       style="fill:#000000;fill-rule:nonzero;stroke:none;stroke-width:0.26458332px;stroke-linecap:butt;stroke-linejoin:miter;stroke-opacity:1" />
    <g
       id="g3054">
      <path
         transform="matrix(-0.474100,-0.880471,0.880471,-0.474100,-298.464619,242.588387)"
         inkscape:connector-curvature="0"
         id="path6106"
         d="m -67.403357,235.63275 c -0.838462,3.41401 3.85173,5.24253 6.539132,6.28763 1.929788,0.75047 4.017044,1.56335 6.036122,2.01204 1.361315,0.30251 2.643738,0.2515 4.024079,0.2515 1.258401,0 4.546875,0.48323 5.533112,-0.50301 0.53022,-0.53022 -1.329409,-0.69573 -2.012039,-1.00602 -1.320451,-0.6002 -2.248795,-1.66441 -3.269568,-2.51505 -1.929434,-1.60786 -3.519786,-3.26828 -5.030102,-4.7786 -2.325677,-2.32567 -11.116138,-3.97608 -11.820736,0.25151 z"
         style="fill:none;stroke:#000000;stroke-width:0.26458332px;stroke-linecap:butt;stroke-linejoin:miter;stroke-opacity:1" />
      <path
         transform="matrix(-0.101188,0.994738,-0.994738,-0.101188,157.85453,283.27078)"
         inkscape:connector-curvature="0"
         id="path1888"
         d="m -22.122838,231.02667 c -0.838462,3.41401 3.85173,5.24253 6.539132,6.28763 1.929788,0.75047 4.017044,1.56335 6.0361222,2.01204 1.361315,0.30251 2.643738,0.2515 4.024079,0.2515 1.258401,0 4.54687496,0.48323 5.53311196,-0.50301 0.53022,-0.53022 -1.32940896,-0.69573 -2.01203896,-1.00602 -1.320451,-0.6002 -2.248795,-1.66441 -3.269568,-2.51505 -1.929434,-1.60786 -3.519786,-3.26828 -5.0301022,-4.7786 -2.325677,-2.32567 -11.116138,-3.97608 -11.820736,0.25151 z"
         style="fill:#00ff00;stroke:none;stroke-width:0.26458332px;stroke-linecap:butt;stroke-linejoin:miter;stroke-opacity:1;opacity:0.57"
         sodipodi:nodetypes="cccsccccc" />
      <path
         transform="matrix(0.993020,0.116425,-0.116425,0.993020,25.048602,-7.837980)"
         inkscape:connector-curvature="0"
         id="path3316"
         d="m -67.403357,235.63275 c -0.838462,3.41401 3.85173,5.24253 6.539132,6.28763 1.929788,0.75047 4.017044,1.56335 6.036122,2.01204 1.361315,0.30251 2.643738,0.2515 4.024079,0.2515 1.258401,0 4.546875,0.48323 5.533112,-0.50301 0.53022,-0.53022 -1.329409,-0.69573 -2.012039,-1.00602 -1.320451,-0.6002 -2.248795,-1.66441 -3.269568,-2.51505 -1.929434,-1.60786 -3.519786,-3.26828 -5.030102,-4.7786 -2.325677,-2.32567 -11.116138,-3.97608 -11.820736,0.25151 z"
         style="fill:none;stroke:#000000;stroke-width:0.26458332px;stroke-linecap:butt;stroke-linejoin:miter;stroke-opacity:1" />
      <path
         transform="matrix(0.736109,-0.676744,0.676744,0.736109,-153.334936,-1.014372)"
         inkscape:connector-curvature="0"
         id="path6685"
         d="m -67.403357,235.63275 c -0.838462,3.41401 3.85173,5.24253 6.539132,6.28763 1.929788,0.75047 4.017044,1.56335 6.036122,2.01204 1.361315,0.30251 2.643738,0.2515 4.024079,0.2515 1.258401,0 4.546875,0.48323 5.533112,-0.50301 0.53022,-0.53022 -1.329409,-0.69573 -2.012039,-1.00602 -1.320451,-0.6002 -2.248795,-1.66441 -3.269568,-2.51505 -1.929434,-1.60786 -3.519786,-3.26828 -5.030102,-4.7786 -2.325677,-2.32567 -11.116138,-3.97608 -11.820736,0.25151 z"
         style="fill:none;stroke:#000000;stroke-width:0.26458332px;stroke-linecap:butt;stroke-linejoin:miter;stroke-opacity:1" />
      <path
         transform="matrix(0.083204,-0.996480,0.996480,0.083204,-253.657480,112.684010)"
         inkscape:connector-curvature="0"
         id="path6990"
         d="m -67.403357,235.63275 c -0.838462,3.41401 3.85173,5.24253 6.539132,6.28763 1.929788,0.75047 4.017044,1.56335 6.036122,2.01204 1.361315,0.30251 2.643738,0.2515 4.024079,0.2515 1.258401,0 4.546875,0.48323 5.533112,-0.50301 0.53022,-0.53022 -1.329409,-0.69573 -2.012039,-1.00602 -1.320451,-0.6002 -2.248795,-1.66441 -3.269568,-2.51505 -1.929434,-1.60786 -3.519786,-3.26828 -5.030102,-4.7786 -2.325677,-2.32567 -11.116138,-3.97608 -11.820736,0.25151 z"
         style="fill:none;stroke:#000000;stroke-width:0.26458332px;stroke-linecap:butt;stroke-linejoin:miter;stroke-opacity:1" />
      <path
         transform="matrix(-0.973678,-0.227590,0.227590,-0.973678,-148.918117,392.738046)"
         inkscape:connector-curvature="0"
         id="path5325"
         d="m -67.403357,235.63275 c -0.838462,3.41401 3.85173,5.24253 6.539132,6.28763 1.929788,0.75047 4.017044,1.56335 6.036122,2.01204 1.361315,0.30251 2.643738,0.2515 4.024079,0.2515 1.258401,0 4.546875,0.48323 5.533112,-0.50301 0.53022,-0.53022 -1.329409,-0.69573 -2.012039,-1.00602 -1.320451,-0.6002 -2.248795,-1.66441 -3.269568,-2.51505 -1.929434,-1.60786 -3.519786,-3.26828 -5.030102,-4.7786 -2.325677,-2.32567 -11.116138,-3.97608 -11.820736,0.25151 z"
         style="fill:none;stroke:#000000;stroke-width:0.26458332px;stroke-linecap:butt;stroke-linejoin:miter;stroke-opacity:1" />
      <path
         transform="matrix(0.784434,-0.619963,0.619963,0.784434,-133.139293,-63.930702)"
         inkscape:connector-curvature="0"
         id="path6956"
         d="m -67.403357,235.63275 c -0.838462,3.41401 3.85173,5.24253 6.539132,6.28763 1.929788,0.75047 4.017044,1.56335 6.036122,2.01204 1.361315,0.30251 2.643738,0.2515 4.024079,0.2515 1.258401,0 4.546875,0.48323 5.533112,-0.50301 0.53022,-0.53022 -1.329409,-0.69573 -2.012039,-1.00602 -1.320451,-0.6002 -2.248795,-1.66441 -3.269568,-2.51505 -1.929434,-1.60786 -3.519786,-3.26828 -5.030102,-4.7786 -2.325677,-2.32567 -11.116138,-3.97608 -11.820736,0.25151 z"
         style="fill:none;stroke:#000000;stroke-width:0.26458332px;stroke-linecap:butt;stroke-linejoin:miter;stroke-opacity:1" />
      <path
         transform="matrix(0.871994,0.489374,-0.489374,0.871994,152.924857,-33.624728)"
         inkscape:connector-curvature="0"
         id="path5190"
         d="m -67.403357,235.63275 c -0.838462,3.41401 3.85173,5.24253 6.539132,6.28763 1.929788,0.75047 4.017044,1.56335 6.036122,2.01204 1.361315,0.30251 2.643738,0.2515 4.024079,0.2515 1.258401,0 4.546875,0.48323 5.533112,-0.50301 0.53022,-0.53022 -1.329409,-0.69573 -2.012039,-1.00602 -1.320451,-0.6002 -2.248795,-1.66441 -3.269568,-2.51505 -1.929434,-1.60786 -3.519786,-3.26828 -5.030102,-4.7786 -2.325677,-2.32567 -11.116138,-3.97608 -11.820736,0.25151 z"
         style="fill:none;stroke:#000000;stroke-width:0.26458332px;stroke-linecap:butt;stroke-linejoin:miter;stroke-opacity:1" />
      <path
         transform="matrix(-0.850496,-0.525841,0.525841,-0.850496,-185.601203,320.725787)"
         inkscape:connector-curvature="0"
         id="path8949"
         d="m -67.403357,235.63275 c -0.838462,3.41401 3.85173,5.24253 6.539132,6.28763 1.929788,0.75047 4.017044,1.56335 6.036122,2.01204 1.361315,0.30251 2.643738,0.2515 4.024079,0.2515 1.258401,0 4.546875,0.48323 5.533112,-0.50301 0.53022,-0.53022 -1.329409,-0.69573 -2.012039,-1.00602 -1.320451,-0.6002 -2.248795,-1.66441 -3.269568,-2.51505 -1.929434,-1.60786 -3.519786,-3.26828 -5.030102,-4.7786 -2.325677,-2.32567 -11.116138,-3.97608 -11.820736,0.25151 z"
         style="fill:none;stroke:#000000;stroke-width:0.26458332px;stroke-linecap:butt;stroke-linejoin:miter;stroke-opacity:1" />
      <path
         transform="matrix(-0.735604,0.676841,-0.676841,-0.735604,91.422790,371.258971)"
         inkscape:connector-curvature="0"
         id="path1129"
         d="m -67.403357,235.63275 c -0.838462,3.41401 3.85173,5.24253 6.539132,6.28763 1.929788,0.75047 4.017044,1.56335 6.036122,2.01204 1.361315,0.30251 2.643738,0.2515 4.024079,0.2515 1.258401,0 4.546875,0.48323 5.533112,-0.50301 0.53022,-0.53022 -1.329409,-0.69573 -2.012039,-1.00602 -1.320451,-0.6002 -2.248795,-1.66441 -3.269568,-2.51505 -1.929434,-1.60786 -3.519786,-3.26828 -5.030102,-4.7786 -2.325677,-2.32567 -11.116138,-3.97608 -11.820736,0.25151 z"
         style="fill:none;stroke:#000000;stroke-width:0.26458332px;stroke-linecap:butt;stroke-linejoin:miter;stroke-opacity:1" />
      <path
         transform="matrix(0.966511,0.256609,-0.256609,0.966511,74.810637,-43.179793)"
         inkscape:connector-curvature="0"
         id="path3276"
         d="m -67.403357,235.63275 c -0.838462,3.41401 3.85173,5.24253 6.539132,6.28763 1.929788,0.75047 4.017044,1.56335 6.036122,2.01204 1.361315,0.30251 2.643738,0.2515 4.024079,0.2515 1.258401,0 4.546875,0.48323 5.533112,-0.50301 0.53022,-0.53022 -1.329409,-0.69573 -2.012039,-1.00602 -1.320451,-0.6002 -2.248795,-1.66441 -3.269568,-2.51505 -1.929434,-1.60786 -3.519786,-3.26828 -5.030102,-4.7786 -2.325677,-2.32567 -11.116138,-3.97608 -11.820736,0.25151 z"
         style="fill:none;stroke:#000000;stroke-width:0.26458332px;stroke-linecap:butt;stroke-linejoin:miter;stroke-opacity:1" />
      <path
         transform="matrix(-0.046542,0.998852,-0.998852,-0.046542,215.134074,255.120147)"
         inkscape:connector-curvature="0"
         id="path0184"
         d="m -67.403357,235.63275 c -0.838462,3.41401 3.85173,5.24253 6.539132,6.28763 1.929788,0.75047 4.017044,1.56335 6.036122,2.01204 1.361315,0.30251 2.643738,0.2515 4.024079,0.2515 1.258401,0 4.546875,0.48323 5.533112,-0.50301 0.53022,-0.53022 -1.329409,-0.69573 -2.012039,-1.00602 -1.320451,-0.6002 -2.248795,-1.66441 -3.269568,-2.51505 -1.929434,-1.60786 -3.519786,-3.26828 -5.030102,-4.7786 -2.325677,-2.32567 -11.116138,-3.97608 -11.820736,0.25151 z"
         style="fill:none;stroke:#000000;stroke-width:0.26458332px;stroke-linecap:butt;stroke-linejoin:miter;stroke-opacity:1" />
      <path
         transform="matrix(-0.772195,0.635133,-0.635133,-0.772195,75.268919,432.197391)"
         inkscape:connector-curvature="0"
         id="path6054"
         d="m -67.403357,235.63275 c -0.838462,3.41401 3.85173,5.24253 6.539132,6.28763 1.929788,0.75047 4.017044,1.56335 6.036122,2.01204 1.361315,0.30251 2.643738,0.2515 4.024079,0.2515 1.258401,0 4.546875,0.48323 5.533112,-0.50301 0.53022,-0.53022 -1.329409,-0.69573 -2.012039,-1.00602 -1.320451,-0.6002 -2.248795,-1.66441 -3.269568,-2.51505 -1.929434,-1.60786 -3.519786,-3.26828 -5.030102,-4.7786 -2.325677,-2.32567 -11.116138,-3.97608 -11.820736,0.25151 z"
         style="fill:none;stroke:#000000;stroke-width:0.26458332px;stroke-linecap:butt;stroke-linejoin:miter;stroke-opacity:1" />
      <path
         transform="matrix(-0.992948,-0.117043,0.117043,-0.992948,-141.914835,452.827750)"
         inkscape:connector-curvature="0"
         id="path1268"
         d="m -67.403357,235.63275 c -0.838462,3.41401 3.85173,5.24253 6.539132,6.28763 1.929788,0.75047 4.017044,1.56335 6.036122,2.01204 1.361315,0.30251 2.643738,0.2515 4.024079,0.2515 1.258401,0 4.546875,0.48323 5.533112,-0.50301 0.53022,-0.53022 -1.329409,-0.69573 -2.012039,-1.00602 -1.320451,-0.6002 -2.248795,-1.66441 -3.269568,-2.51505 -1.929434,-1.60786 -3.519786,-3.26828 -5.030102,-4.7786 -2.325677,-2.32567 -11.116138,-3.97608 -11.820736,0.25151 z"
         style="fill:none;stroke:#000000;stroke-width:0.26458332px;stroke-linecap:butt;stroke-linejoin:miter;stroke-opacity:1" />
      <path
         transform="matrix(0.101576,-0.994698,0.994698,0.101576,-305.30429,123.0679)"
         inkscape:connector-curvature="0"
         id="path1617"
         d="m -112.6821,240.2565 c -0.83846,3.41401 3.85173,5.24253 6.53914,6.28763 1.92978,0.75047 4.01704,1.56335 6.03612,2.01204 1.361313,0.30251 2.643736,0.2515 4.024077,0.2515 1.258401,0 4.546875,0.48323 5.533112,-0.50301 0.53022,-0.53022 -1.329409,-0.69573 -2.012039,-1.00602 -1.320451,-0.6002 -2.248795,-1.66441 -3.269568,-2.51505 -1.929434,-1.60786 -3.519786,-3.26828 -5.030102,-4.7786 -2.32568,-2.32567 -11.11614,-3.97608 -11.82074,0.25151 z"
         style="fill:#d45500;stroke:none;stroke-width:0.26458332px;stroke-linecap:butt;stroke-linejoin:miter;stroke-opacity:1;opacity:0.5"
         sodipodi:nodetypes="cccsccccc" />
      <path
         style="fill:none;stroke:#000000;stroke-width:0.26458332px;stroke-linecap:butt;stroke-linejoin:miter;stroke-opacity:1"
         d="m 98.84149,151.12705 c 0,0 23.92462,-42.98139 39.60177,14.78094 15.67714,57.76233 31.82567,11.87859 31.82567,11.87859 v 0"
         id="path3075"
         inkscape:connector-curvature="0"
         sodipodi:nodetypes="czsc" />
    </g>
  </g>
</svg>
