<?xml version="1.0" encoding="UTF-8" standalone="no"?>
<!-- Created with Inkscape (http://www.inkscape.org/) -->

<svg
   xmlns:dc="http://purl.org/dc/elements/1.1/"
   xmlns:cc="http://creativecommons.org/ns#"
   xmlns:rdf="http://www.w3.org/1999/02/22-rdf-syntax-ns#"
   xmlns:svg="http://www.w3.org/2000/svg"
   xmlns="http://www.w3.org/2000/svg"
   xmlns:sodipodi="http://sodipodi.sourceforge.net/DTD/sodipodi-0.dtd"
   xmlns:inkscape="http://www.inkscape.org/namespaces/inkscape"
   width="500"
   height="300"
   viewBox="0 0 132.29167 79.374999"
   version="1.1"
   id="svg4623"
   inkscape:version="0.92.4 (f8dce91, 2019-08-02)"
   sodipodi:docname="fhmc logo.svg">
  <defs
     id="defs4617" />
  <sodipodi:namedview
     id="base"
     pagecolor="#ffffff"
     bordercolor="#666666"
     borderopacity="1.0"
     inkscape:pageopacity="0.0"
     inkscape:pageshadow="2"
     inkscape:zoom="1.7533333"
     inkscape:cx="295.62738"
     inkscape:cy="104.37262"
     inkscape:document-units="mm"
     inkscape:current-layer="layer1"
     showgrid="false"
     units="px"
     inkscape:object-paths="true"
     inkscape:snap-bbox="true"
     inkscape:window-width="1329"
     inkscape:window-height="713"
     inkscape:window-x="37"
     inkscape:window-y="27"
     inkscape:window-maximized="1" />
  <metadata
     id="metadata4620">
    <rdf:RDF>
      <cc:Work
         rdf:about="">
        <dc:format>image/svg+xml</dc:format>
        <dc:type
           rdf:resource="http://purl.org/dc/dcmitype/StillImage" />
        <dc:title></dc:title>
      </cc:Work>
    </rdf:RDF>
  </metadata>
  <g
     inkscape:label="Layer 1"
     inkscape:groupmode="layer"
     id="layer1"
     transform="translate(0,-217.625)">
    <path
       style="font-style:normal;font-variant:normal;font-weight:bold;font-stretch:normal;font-size:144px;line-height:1.25;font-family:'Nimbus Roman No9 L';-inkscape-font-specification:'Nimbus Roman No9 L Bold';letter-spacing:0px;word-spacing:0px;fill:none;fill-opacity:1;stroke:#ff0000;stroke-width:0.26458332"
       d="m 33.054001,248.12569 c -0.01849,0.006 -0.0412,0.0136 -0.05943,0.0196 -1.669021,0.55631 -2.49817,0.79305 -4.005441,1.54668 -1.64129,0.82065 -3.259769,0.66844 -4.866369,1.47174 -0.69571,0.34785 -3.914981,0.25526 -4.414201,0.75448 -0.51706,0.51711 -1.287585,0.0805 -2.037085,0.37724 -1.69716,0.67193 -2.282875,0.47096 -2.338875,0.41496 -0.574727,-0.57473 -3.416728,0.32752 -3.8809,0.28112 v 2.84014 c 2.628899,0.1524 3.352767,0.72406 3.352767,2.70526 v 18.44021 c 0,1.9812 -0.533368,2.40047 -3.352767,2.70527 v 0.95239 h 13.715958 v -0.95239 c -3.5052,-0.1524 -4.190958,-0.60977 -4.190958,-2.70527 v -8.87749 c 3.8862,0.0762 5.295701,1.48598 5.829101,5.90558 h 0.952397 v -12.87776 h -0.952397 c -0.6858,4.3434 -2.019101,5.67717 -5.829101,5.67717 v -8.83926 c 0,-1.40969 0.494994,-1.7911 2.438094,-1.7911 3.5052,0 5.753361,0.64777 6.93446,1.98128 0.838199,0.95249 1.257188,1.98134 1.790588,4.38164 h 0.914157 z"
       id="path4885"
       inkscape:connector-curvature="0" />
    <path
       style="font-style:normal;font-variant:normal;font-weight:bold;font-stretch:normal;font-size:144px;line-height:1.25;font-family:'Nimbus Roman No9 L';-inkscape-font-specification:'Nimbus Roman No9 L Bold';letter-spacing:0px;word-spacing:0px;fill:#000000;fill-opacity:1;stroke:none;stroke-width:0.25293258;stroke-miterlimit:4.30000019;stroke-dasharray:none"
       d="m 61.973165,234.69705 c -1.104008,0.01 -1.787006,0.65217 -2.705777,1.11156 -1.599065,0.79953 -3.965536,2.63155 -5.847705,3.16931 -1.137361,0.57922 -2.227971,1.20602 -3.32228,1.78646 v 15.0673 c 2.667003,0.1905 3.429249,0.80026 3.429249,2.70526 v 7.88634 h -9.182386 v -7.88634 c 0,-1.905 0.762249,-2.51476 3.429249,-2.70526 v -13.95212 c -0.238649,0.0988 -0.478198,0.1947 -0.720887,0.28215 -1.530551,0.55148 -2.74007,1.16833 -4.422468,1.94665 -1.189222,0.55015 -4.983451,1.83868 -6.074047,2.56573 -0.427726,0.28515 -1.012288,0.53684 -1.622642,0.76223 v 8.39536 c 2.552703,0.2286 3.238563,0.80026 3.238563,2.70526 v 18.44021 c 0,1.8669 -0.571563,2.36237 -3.238563,2.70527 v 0.95239 h 12.840044 v -0.95239 c -2.7813,-0.3048 -3.429249,-0.83837 -3.429249,-2.70527 v -8.76277 h 9.182386 v 8.76277 c 0,1.8669 -0.647949,2.40047 -3.429249,2.70527 v 0.95239 h 12.954249 v -0.95239 c -2.7432,-0.3429 -3.352766,-0.83837 -3.352766,-2.70527 v -18.44021 c 0,-1.905 0.761966,-2.51476 3.352766,-2.70526 v -20.90054 c -0.336828,-0.0972 -0.63417,-0.21273 -0.851628,-0.22737 -0.07754,-0.005 -0.153257,-0.007 -0.226859,-0.007 z"
       id="path4887"
       inkscape:connector-curvature="0"
       sodipodi:nodetypes="cscccsccscccccccssccccsccsccccsscccc" />
    <path
       style="font-style:normal;font-variant:normal;font-weight:bold;font-stretch:normal;font-size:144px;line-height:1.25;font-family:'Nimbus Roman No9 L';-inkscape-font-specification:'Nimbus Roman No9 L Bold';letter-spacing:0px;word-spacing:0px;fill:none;fill-opacity:1;stroke:#ff0000;stroke-width:0.26458332"
       d="m 100.13983,249.23931 -0.0139,18.70791 c 0,7.8486 5.60033,13.41158 13.48703,13.41158 2.7051,0 4.95316,-0.64806 7.04866,-2.05776 1.2192,-0.8382 2.05737,-1.60021 3.77187,-3.50521 l -1.14309,-0.9524 c -2.2479,2.3622 -3.46714,3.27689 -5.33404,4.00079 -1.1049,0.4572 -2.36193,0.68575 -3.42873,0.68575 -2.5146,0 -4.91488,-1.33384 -6.01978,-3.31504 -1.1049,-2.0193 -1.63815,-4.76209 -1.63815,-8.57209 0,-7.8867 2.43791,-12.07781 7.00991,-12.07781 1.7907,0 3.42909,0.68591 5.06739,2.13371 1.6383,1.4859 2.51485,2.74282 3.84835,5.63842 h 0.95239 v -9.38961 c -0.49533,-0.20066 -0.7975,-0.29455 -1.25212,-0.29455 -0.66595,0 -1.5115,-0.91502 -2.83497,-1.12707 -0.96913,-0.15527 -2.29959,0.41634 -3.47834,0.24909 -0.78945,-0.11202 -1.2245,-0.63569 -1.91409,-0.84646 -1.1867,-0.36271 -2.48001,-0.64265 -2.94091,-0.74104 -0.94101,-0.20094 -1.80636,-0.32396 -2.53783,-0.44287 -0.77134,-0.1254 -1.39399,-0.24638 -1.79937,-0.44907 -0.88579,-0.4429 -2.7172,-0.19936 -3.62924,-0.62942 -0.95209,-0.44898 -2.19404,0.013 -3.22099,-0.42685 z"
       id="path4891"
       inkscape:connector-curvature="0" />
    <path
       style="font-style:normal;font-variant:normal;font-weight:bold;font-stretch:normal;font-size:144px;line-height:1.25;font-family:'Nimbus Roman No9 L';-inkscape-font-specification:'Nimbus Roman No9 L Bold';letter-spacing:0px;word-spacing:0px;fill:#000000;fill-opacity:1;stroke:none;stroke-width:0.25293258;stroke-miterlimit:4.30000019;stroke-dasharray:none"
       d="m 66.02098,234.46192 c -0.395621,-0.003 -0.882888,0.12879 -1.341519,0.42633 -0.105296,0.0683 -0.212416,0.1183 -0.31936,0.1571 v 20.78633 c 2.7813,0.2286 3.39049,0.72406 3.39049,2.70526 v 18.09708 c 0,2.286 -0.495173,2.7436 -3.466973,3.0484 v 0.95239 h 8.915736 v -0.95239 c -3.1242,-0.2286 -3.848344,-0.95247 -3.848344,-3.77187 v -17.90743 c 2.020483,4.76274 4.041164,9.52527 6.061644,14.28802 l 3.539321,8.34367 h 1.028877 l 9.60148,-23.20272 v 19.39262 c 0,2.1336 -0.533508,2.59101 -3.391008,2.85771 v 0.95239 h 12.64884 v -0.95239 c -2.9718,-0.381 -3.352766,-0.80012 -3.352766,-3.50522 v -16.84031 c 0,-2.7432 0.571466,-3.31471 3.352766,-3.50521 v -6.74378 c -0.376603,-0.0208 -0.765376,-0.0187 -1.114661,5.2e-4 -0.928968,-0.46448 -2.002094,-0.46211 -2.992064,-0.709 -1.55674,-0.38825 -3.074993,-0.94852 -4.779552,-1.51671 -0.328129,-0.10937 -0.630309,-0.2227 -0.922941,-0.33744 l 0.02222,8.79016 -7.434173,17.54673 -3.341915,-8.34988 -2.323372,-4.45657 -2.258777,-4.331 0.09664,-17.10025 c -0.373179,-0.23218 -0.707197,-0.4427 -0.927592,-0.58963 -1.17562,-0.72052 -3.135683,-1.8995 -4.602303,-2.75384 -0.808281,-0.20971 -1.341593,-0.72957 -2.077392,-0.80977 -0.05242,-0.006 -0.10678,-0.009 -0.163298,-0.009 z"
       id="path4889"
       inkscape:connector-curvature="0" />
    <path
       style="opacity:1;fill:#000000;fill-opacity:1;stroke:none;stroke-width:0.28678977;stroke-miterlimit:4.30000019;stroke-dasharray:none;stroke-opacity:1"
       d="m 75.811595,239.85177 v 15.26729 h 11.726934 v -5.50251 -3.73879 c -0.796065,-0.37472 -1.546235,-0.75766 -2.413288,-1.12758 -1.330201,-0.45466 -1.517145,-0.46534 -2.565736,-1.09451 -1.94732,-1.16838 -2.401721,-1.26579 -4.790922,-2.64066 -0.458287,-0.26554 -1.225838,-0.72471 -1.956988,-1.16324 z"
       id="rect4921"
       inkscape:connector-curvature="0" />
    <path
       style="fill:#ffffff;stroke:#000000;stroke-width:0.26458332px;stroke-linecap:butt;stroke-linejoin:miter;stroke-opacity:1"
       d="m 61.973165,234.69705 c -1.104008,0.01 -1.787006,0.65217 -2.705777,1.11156 -1.599065,0.79953 -3.965536,2.63155 -5.847705,3.16931 -0.755549,0.38477 -1.411917,1.27669 -2.140992,1.67592 -0.03452,0.0853 -0.597265,0.69906 -0.629727,0.78267 -0.474226,1.22139 -0.181464,1.18054 0.353811,1.38924 0.254567,0.0509 2.1872,-1.32718 2.45463,-1.28261 0.705575,0.11759 0.25989,0.92306 0.943097,0.82992 0.858313,-0.11704 2.798548,-2.20575 3.659208,-2.15025 0.724136,0.0467 -0.601429,2.47528 0.11317,2.60294 0.519822,0.13799 2.449047,-1.02317 3.357936,-1.54667 0.698227,-0.62819 1.076785,-1.77353 1.520836,-2.19679 v -4.15115 c -0.336828,-0.0972 -0.63417,-0.21273 -0.851628,-0.22737 -0.07754,-0.005 -0.153257,-0.007 -0.226859,-0.007 z"
       id="path5549"
       inkscape:connector-curvature="0"
       sodipodi:nodetypes="csccscccccccccc" />
    <path
       style="fill:#ffffff;stroke:#000000;stroke-width:0.26458332px;stroke-linecap:butt;stroke-linejoin:miter;stroke-opacity:1"
       d="m 66.02098,234.46192 c -0.395621,-0.003 -0.882888,0.12879 -1.341519,0.42633 -0.105296,0.0683 -0.212418,0.1183 -0.31936,0.1571 v 4.2447 c 0.322799,0.24929 0.708795,0.65914 1.18804,1.28158 0.780349,0.5688 4.263268,3.16421 1.773018,-0.19172 -0.34598,-0.46625 -1.914038,-2.19835 -1.007174,-2.03451 0.684901,0.12375 1.248966,1.78599 2.5585,2.37557 1.507768,0.67883 0.140986,-0.90469 -0.495059,-1.92236 1.642615,-0.73124 2.461691,2.27074 3.996137,2.85977 1.246647,0.47856 -0.756415,-1.79315 -0.336413,-1.91668 0.111104,-0.0327 0.221091,0.89978 1.043392,0.99904 0.38775,0.0468 0.291323,-0.13773 0.398767,-0.30476 0.328658,-0.51089 0.312261,-1.81152 0.312261,-1.81152 -0.373178,-0.23218 -0.707196,-0.4427 -0.927592,-0.58963 -1.17562,-0.72052 -3.135683,-1.8995 -4.602302,-2.75384 -0.808281,-0.20971 -1.341594,-0.72957 -2.077392,-0.80977 -0.05242,-0.006 -0.106781,-0.009 -0.163298,-0.009 z"
       id="path5560"
       inkscape:connector-curvature="0"
       sodipodi:nodetypes="cccccccccccsscccccc" />
    <path
       id="path5566"
       d="m 33.054001,248.12569 c -0.01849,0.006 -0.0412,0.0136 -0.05943,0.0196 -1.669021,0.55631 -2.49817,0.79305 -4.005441,1.54668 -1.64129,0.82065 -3.259769,0.66844 -4.866369,1.47174 -0.69571,0.34785 -3.914981,0.25526 -4.414201,0.75448 -0.51706,0.51711 -1.287585,0.0805 -2.037085,0.37724 -1.69716,0.67193 -2.282875,0.47096 -2.338875,0.41496 -0.574727,-0.57473 -3.416728,0.32752 -3.8809,0.28112 v 2.84014 c 2.628899,0.1524 3.352767,0.72406 3.352767,2.70526 v 18.44021 c 0,1.9812 -0.533368,2.40047 -3.352767,2.70527 v 0.95239 h 13.715958 v -0.95239 c -3.5052,-0.1524 -4.190958,-0.60977 -4.190958,-2.70527 v -8.87749 c 3.8862,0.0762 5.295701,1.48598 5.829101,5.90558 h 0.952397 v -12.87776 h -0.952397 c -0.6858,4.3434 -2.019101,5.67717 -5.829101,5.67717 v -8.83926 c 0,-1.40969 0.494994,-1.7911 2.438094,-1.7911 3.5052,0 5.753361,0.64777 6.93446,1.98128 0.838199,0.95249 1.257188,1.98134 1.790588,4.38164 h 0.914157 z"
       style="font-style:normal;font-variant:normal;font-weight:bold;font-stretch:normal;font-size:144px;line-height:1.25;font-family:'Nimbus Roman No9 L';-inkscape-font-specification:'Nimbus Roman No9 L Bold';letter-spacing:0px;word-spacing:0px;fill:#000000;fill-opacity:1;stroke:#000000;stroke-width:0.30000001;stroke-miterlimit:4.30000019;stroke-dasharray:none;stroke-opacity:1"
       inkscape:connector-curvature="0" />
    <path
       id="path5570"
       d="m 100.13983,249.23931 -0.0139,18.70791 c 0,7.8486 5.60033,13.41158 13.48703,13.41158 2.7051,0 4.95316,-0.64806 7.04866,-2.05776 1.2192,-0.8382 2.05737,-1.60021 3.77187,-3.50521 l -1.14309,-0.9524 c -2.2479,2.3622 -3.46714,3.27689 -5.33404,4.00079 -1.1049,0.4572 -2.36193,0.68575 -3.42873,0.68575 -2.5146,0 -4.91488,-1.33384 -6.01978,-3.31504 -1.1049,-2.0193 -1.63815,-4.76209 -1.63815,-8.57209 0,-7.8867 2.43791,-12.07781 7.00991,-12.07781 1.7907,0 3.42909,0.68591 5.06739,2.13371 1.6383,1.4859 2.51485,2.74282 3.84835,5.63842 h 0.95239 v -9.38961 c -0.49533,-0.20066 -0.7975,-0.29455 -1.25212,-0.29455 -0.66595,0 -1.5115,-0.91502 -2.83497,-1.12707 -0.96913,-0.15527 -2.29959,0.41634 -3.47834,0.24909 -0.78945,-0.11202 -1.2245,-0.63569 -1.91409,-0.84646 -1.1867,-0.36271 -2.48001,-0.64265 -2.94091,-0.74104 -0.94101,-0.20094 -1.80636,-0.32396 -2.53783,-0.44287 -0.77134,-0.1254 -1.39399,-0.24638 -1.79937,-0.44907 -0.88579,-0.4429 -2.7172,-0.19936 -3.62924,-0.62942 -0.95209,-0.44898 -2.19404,0.013 -3.22099,-0.42685 z"
       style="font-style:normal;font-variant:normal;font-weight:bold;font-stretch:normal;font-size:144px;line-height:1.25;font-family:'Nimbus Roman No9 L';-inkscape-font-specification:'Nimbus Roman No9 L Bold';letter-spacing:0px;word-spacing:0px;fill:#000000;fill-opacity:1;stroke:#000000;stroke-width:0.30000001;stroke-miterlimit:4.30000019;stroke-dasharray:none;stroke-opacity:1"
       inkscape:connector-curvature="0" />
  </g>
</svg>
