<?xml version="1.0" encoding="UTF-8" standalone="no"?>
<!-- Created with Inkscape (http://www.inkscape.org/) -->

<svg
   xmlns:dc="http://purl.org/dc/elements/1.1/"
   xmlns:cc="http://creativecommons.org/ns#"
   xmlns:rdf="http://www.w3.org/1999/02/22-rdf-syntax-ns#"
   xmlns:svg="http://www.w3.org/2000/svg"
   xmlns="http://www.w3.org/2000/svg"
   xmlns:sodipodi="http://sodipodi.sourceforge.net/DTD/sodipodi-0.dtd"
   xmlns:inkscape="http://www.inkscape.org/namespaces/inkscape"
   width="210mm"
   height="297mm"
   viewBox="0 0 210 297"
   version="1.1"
   id="svg8"
   inkscape:version="0.92.5 (2060ec1f9f, 2020-04-08)"
   sodipodi:docname="LOGO for cv.svg">
  <defs
     id="defs2" />
  <sodipodi:namedview
     id="base"
     pagecolor="#ffffff"
     bordercolor="#666666"
     borderopacity="1.0"
     inkscape:pageopacity="0.0"
     inkscape:pageshadow="2"
     inkscape:zoom="0.16"
     inkscape:cx="2459.0045"
     inkscape:cy="531.8373"
     inkscape:document-units="mm"
     inkscape:current-layer="layer1"
     showgrid="false"
     showguides="false"
     inkscape:snap-global="false"
     inkscape:window-width="1366"
     inkscape:window-height="706"
     inkscape:window-x="0"
     inkscape:window-y="0"
     inkscape:window-maximized="1" />
  <metadata
     id="metadata5">
    <rdf:RDF>
      <cc:Work
         rdf:about="">
        <dc:format>image/svg+xml</dc:format>
        <dc:type
           rdf:resource="http://purl.org/dc/dcmitype/StillImage" />
        <dc:title />
      </cc:Work>
    </rdf:RDF>
  </metadata>
  <g
     inkscape:label="Layer 1"
     inkscape:groupmode="layer"
     id="layer1">
    <path
       inkscape:connector-curvature="0"
       id="path1084"
       d="m 475.77273,450.23396 -1.0044,-0.16887 -1.368,-0.64015 -1.368,-0.64014 -1.2546,-1.25463 -1.2546,-1.25463 -0.6301,-1.34652 -0.6302,-1.34653 -0.2023,-1.2358 -0.2024,-1.23579 v -44.39752 -44.39752 l 0.2024,-1.23579 0.2023,-1.2358 0.6302,-1.34653 0.6301,-1.34652 1.2546,-1.25463 1.2546,-1.25463 1.3466,-0.63011 1.3465,-0.63012 1.2358,-0.20238 1.2358,-0.20238 h 44.3975 44.3975 l 1.2358,0.20238 1.2358,0.20238 1.3465,0.63012 1.3466,0.63011 1.2546,1.25463 1.2546,1.25463 0.6301,1.34652 0.6301,1.34653 0.2024,1.2358 0.2024,1.23579 v 44.39752 44.39752 l -0.2024,1.23579 -0.2024,1.2358 -0.6301,1.34653 -0.6301,1.34652 -1.2546,1.25463 -1.2546,1.25463 -1.3466,0.63012 -1.3465,0.63011 -1.2358,0.20238 -1.2358,0.20238 -44.6074,-0.0235 -44.6075,-0.0235 z m 23.9095,-12.03788 0.6537,-0.39581 0.3434,-0.5812 0.3433,-0.58121 -8e-4,-26.10232 -9e-4,-26.10232 -0.4236,-0.69487 -0.4237,-0.69486 -0.7233,-0.30225 -0.7234,-0.30224 -6.5667,8.4e-4 -6.5666,8.4e-4 -0.6842,0.41713 -0.6841,0.41713 -0.4172,0.68415 -0.417,0.68404 -8e-4,25.7741 -8e-4,25.7741 0.2859,0.67548 0.2859,0.67549 0.4263,0.37948 0.4262,0.37948 0.5999,0.18533 0.5998,0.18532 6.5074,-0.04 6.5075,-0.04 z m 25.7501,0.0255 0.5646,-0.37028 0.3703,-0.56486 0.3703,-0.56487 0.1099,-15.01857 0.1099,-15.01858 0.4838,-1.67933 0.4837,-1.67934 0.7343,-1.39776 0.7342,-1.39776 0.7208,-0.84207 0.7208,-0.84208 1.0281,-0.63262 1.0281,-0.63262 1.1072,-0.32879 1.1071,-0.32878 1.5888,0.002 1.5887,0.002 1.105,0.29416 1.105,0.29416 0.9068,0.5314 0.9068,0.53141 0.7931,0.87786 0.7931,0.87787 0.6101,1.30378 0.6101,1.30378 0.3479,1.45105 0.3478,1.45104 0.1206,15.53388 0.1207,15.53388 0.3687,0.54255 0.3687,0.54254 0.5554,0.29713 0.5554,0.29712 h 7.1577 7.1577 l 0.588,-0.39853 0.588,-0.39852 0.3042,-0.58816 0.3041,-0.58815 -4e-4,-15.28191 -4e-4,-15.28192 -0.2127,-2.78753 -0.2126,-2.78754 -0.4236,-2.19488 -0.4236,-2.19488 -0.5447,-1.62998 -0.5447,-1.62998 -0.7323,-1.46942 -0.7324,-1.46942 -0.9124,-1.28633 -0.9124,-1.28634 -1.3466,-1.23267 -1.3467,-1.23268 -1.6524,-0.87832 -1.6523,-0.87833 -1.8748,-0.54283 -1.8748,-0.54282 -2.4812,-0.24808 -2.4811,-0.24807 -2.6763,0.24493 -2.6763,0.24493 -1.616,0.41583 -1.6161,0.41584 -1.5327,0.71431 -1.5327,0.71432 -1.3472,1.02065 -1.3472,1.02065 -1.1718,1.43606 -1.1718,1.43607 -0.1051,-2.47745 -0.105,-2.47744 -0.3796,-0.55919 -0.3795,-0.55918 -0.7017,-0.33297 -0.7019,-0.33297 h -6.6539 -6.6539 l -0.7046,0.33439 -0.7047,0.33439 -0.4291,0.88643 -0.4291,0.88643 0.001,25.49116 v 25.49116 l 0.2084,0.7503 0.2084,0.7503 0.4977,0.46755 0.4977,0.46754 0.6047,0.18656 0.6047,0.18656 6.6221,-0.0399 6.6221,-0.0399 0.5647,-0.37028 z m -30.1912,-60.93213 1.2341,-0.32142 1.2765,-0.67569 1.2766,-0.67568 1.2968,-1.29283 1.2967,-1.29282 0.8405,-1.75098 0.8405,-1.75098 0.2244,-1.24557 0.2243,-1.24558 v -0.8536 -0.85359 l -0.2936,-1.38529 -0.2937,-1.38529 -0.6998,-1.4486 -0.6998,-1.44859 -1.3644,-1.36446 -1.3645,-1.36447 -1.2595,-0.66361 -1.2595,-0.66361 -1.249,-0.36057 -1.2489,-0.36058 -1.914,0.007 -1.914,0.006 -1.5106,0.52535 -1.5106,0.52534 -1.0181,0.65334 -1.0182,0.65334 -1.16,1.21612 -1.1599,1.21611 -0.6552,1.29789 -0.6552,1.29789 -0.3126,1.2001 -0.3126,1.20009 v 1.59114 1.59113 l 0.3126,1.2001 0.3126,1.20009 0.6603,1.30801 0.6603,1.30801 1.39,1.38999 1.39,1.38999 1.1532,0.58911 1.1533,0.58912 1.1545,0.3737 1.1546,0.37371 1.8976,0.0113 1.8976,0.0113 1.2341,-0.32142 z"
       style="fill:#444041;fill-opacity:1;stroke-width:0.20991734" />
    <path
       inkscape:connector-curvature="0"
       id="path1214"
       d="m 552.29213,66.526132 c -0.6121,-0.0673 -1.1773,-0.20727 -1.2561,-0.31098 -0.079,-0.1037 -0.834,-0.41885 -1.6783,-0.70035 -0.8444,-0.28149 -2.2056,-0.94952 -3.0251,-1.48451 -0.8194,-0.53499 -2.1004,-1.61279 -2.8466,-2.3951 -0.7461,-0.78231 -1.736,-2.13418 -2.1997,-3.00415 -0.4637,-0.86998 -1.0354,-2.32016 -1.2705,-3.22262 l -0.4274,-1.64086 V -4.7305387 -63.228638 l 0.4279,-1.64269 c 0.2353,-0.90349 0.7692,-2.27188 1.1863,-3.04088 0.4171,-0.76901 1.3864,-2.08792 2.154,-2.93093 0.7676,-0.843 2.1257,-2.00562 3.0181,-2.5836 0.8925,-0.57798 2.2741,-1.26335 3.0704,-1.52306 0.7962,-0.25971 1.624,-0.61258 1.8395,-0.78416 0.2825,-0.22498 7.8401,-0.31197 27.1022,-0.31197 h 26.7105 l 0.6703,0.34175 c 0.3687,0.18796 1.3917,0.60487 2.2733,0.92647 0.8817,0.32159 2.3408,1.13935 3.2426,1.81723 0.9018,0.67788 2.097,1.79075 2.6561,2.47304 0.5591,0.68229 1.3881,2.02626 1.8423,2.98661 0.4542,0.96035 0.9575,2.38228 1.1185,3.15984 0.2003,0.96705 0.2693,20.02226 0.2184,60.3082493 l -0.074,58.8945107 -0.6292,1.65219 c -0.3461,0.90871 -1.0164,2.25549 -1.4895,2.99285 -0.4732,0.73736 -1.6139,2.03829 -2.5348,2.89095 -0.921,0.85266 -2.2604,1.84681 -2.9764,2.20923 -0.7161,0.36242 -1.8672,0.82398 -2.558,1.02569 -0.6908,0.20171 -1.3456,0.49847 -1.4551,0.65946 -0.1362,0.20028 -8.3773,0.30277 -26.0978,0.32456 -14.2443,0.0175 -26.3995,-0.0232 -27.0116,-0.0906 z m 28.831,-4.71152 c 0.798,-0.39764 1.824,-1.17564 2.28,-1.72888 0.456,-0.55323 1.021,-1.56911 1.2556,-2.2575 0.2345,-0.68839 0.4252,-1.76306 0.4237,-2.38816 -0.001,-0.6251 -0.2974,-1.76456 -0.6577,-2.53214 -0.3602,-0.76759 -1.0168,-1.75365 -1.459,-2.19125 -0.4422,-0.4376 -1.3081,-1.06098 -1.9241,-1.38528 -0.8011,-0.42166 -1.6371,-0.59146 -2.9345,-0.59602 l -1.8142,-0.006 -1.4928,0.82289 c -0.8749,0.4823 -1.8113,1.28933 -2.2624,1.9499 -0.4233,0.61985 -0.9291,1.6161 -1.124,2.21389 -0.2066,0.63353 -0.2914,1.69733 -0.2033,2.55046 0.083,0.80497 0.3454,1.83947 0.583,2.29889 0.2375,0.45942 0.7768,1.24513 1.1982,1.74602 0.4215,0.50089 1.3995,1.20555 2.1734,1.5659 0.9405,0.43798 1.9209,0.65609 2.9571,0.65792 1.1125,0.002 1.9598,-0.20141 3.001,-0.72026 z m 29.5854,-17.4757 0.3349,-0.33494 V -5.2887787 -54.581528 l -0.3349,-0.33495 -0.335,-0.33494 h -31.6146 -31.6146 l -0.2889,0.53989 c -0.196,0.36627 -0.2889,16.26033 -0.2889,49.4227493 0,33.1624107 0.093,49.0564807 0.2889,49.4227507 l 0.2889,0.53989 h 31.6146 31.6146 z m -44.303,-107.66337 c 0.5207,-0.52066 0.8159,-1.10418 0.8159,-1.61262 0,-0.4382 -0.1834,-1.05857 -0.4075,-1.3786 -0.2242,-0.32004 -0.7894,-0.74004 -1.2561,-0.93334 l -0.8485,-0.35145 -0.8484,0.35145 c -0.4667,0.1933 -1.0319,0.6133 -1.2561,0.93334 -0.2241,0.32003 -0.4076,0.9404 -0.4076,1.3786 0,0.50844 0.2953,1.09196 0.8159,1.61262 0.5569,0.55685 1.0954,0.81589 1.6962,0.81589 0.6008,0 1.1394,-0.25904 1.6962,-0.81589 z m 20.3289,0.41038 c 0.4313,-0.22304 0.9428,-0.78826 1.1365,-1.25605 l 0.3523,-0.85052 -0.3523,-0.85053 c -0.1937,-0.46779 -0.7052,-1.03301 -1.1365,-1.25604 l -0.7842,-0.40552 h -7.4244 -7.4244 l -0.7897,0.40836 c -0.4343,0.22459 -0.8677,0.61168 -0.963,0.86019 -0.095,0.24851 -0.1734,0.85717 -0.1734,1.35258 0,0.49541 0.157,1.09754 0.3489,1.33807 0.1919,0.24053 0.6001,0.57473 0.9071,0.74266 0.3637,0.19891 3.1656,0.3083 8.0386,0.31383 l 7.4803,0.008 z"
       style="fill:#444041;fill-opacity:1;stroke-width:0.27912089" />
    <g
       id="g1058"
       transform="translate(1489.8153,582.20377)"
       style="fill:#444041;fill-opacity:1">
      <g
         id="g1078"
         transform="translate(-686.84745,-199.11864)"
         style="fill:#444041;fill-opacity:1">
        <path
           inkscape:connector-curvature="0"
           id="path1060"
           d="m -108.76274,-7.0962227 c -0.7821,-0.78211 -0.83478,-1.34835 -0.25196,-2.70846 0.23184,-0.5410203 4.76294,-12.4136803 10.069097,-26.3836803 5.30617,-13.97 9.80247,-25.55737 9.99179,-25.7497 0.18932,-0.19233 5.03439,-2.99436 10.76684,-6.22672 8.3015,-4.68099 10.41918,-5.98289 10.40569,-6.39718 -0.009,-0.28609 -1.4566,-2.79211 -3.21618,-5.56895 -4.85343,-7.65932 -6.54498,-11.40186 -7.6629,-16.95414 -0.67544,-3.354617 -0.66414,-10.966297 0.0212,-14.244977 1.56272,-7.47663 5.09988,-14.0786 10.34822,-19.31458 5.57145,-5.55833 11.82903,-8.88333 19.97351,-10.61305 3.40665,-0.7235 10.35936,-0.65219 13.86057,0.14217 7.94505,1.80258 13.89096,5.02076 19.34598,10.47088 5.2484262,5.24372 8.7825902,11.84258 10.3443462,19.31458 0.690591,3.30405 0.705038,10.9387 0.02679,14.155207 -1.215718,5.76535 -2.823461,9.34657 -7.6341812,17.005 -1.898675,3.02259 -3.393475,5.6485 -3.321775,5.83535 0.0717,0.18685 4.836715,2.98872 10.5889162,6.22638 5.752197,3.23767 10.580433,6.03353 10.729406,6.21304 0.148976,0.1795 4.6120048,11.75194 9.9178398,25.71653 5.305835,13.96458 9.83666,25.83282 10.068498,26.3738403 0.582825,1.36011 0.530149,1.92635 -0.25196,2.70846 -0.906531,0.90652 -1.439547,0.85281 -3.513687,-0.35411 -3.003426,-1.74766 -28.6099268,-16.1538403 -29.7148338,-16.7175203 -1.0433,-0.53225 -1.0433,-0.53225 -14.9899192,7.32326 -7.67064,4.32052 -14.97496,8.4329303 -16.23182,9.1386803 -1.25687,0.70574 -2.43187,1.28317 -2.61112,1.28317 -0.17925,0 -7.63619,-4.1172803 -16.57098,-9.1495003 -16.24507,-9.1495 -16.24507,-9.1495 -18.29097,-8.02791 -1.12524,0.61688 -8.45202,4.73415 -16.28173,9.1495 -7.829707,4.41535 -14.462027,8.0279103 -14.738487,8.0279103 -0.27647,0 -0.80573,-0.30307 -1.17615,-0.67348 z m 83.331717,-12.6782203 c 7.42157,-4.17873 13.691127,-7.7954 13.932361,-8.03705 0.408472,-0.40918 0.177147,-1.66655 -3.366511,-18.29875 -4.9236,-23.10892 -4.60049,-21.69619 -4.9615,-21.6935 -0.17197,10e-4 -4.0954,6.00233 -8.71871,13.33565 -7.98991,12.67328 -8.77596,13.78526 -10.9747,15.52531 -0.25665,0.20311 -0.33073,3.21265 -0.33073,13.43638 0,7.24605 0.0831,13.25771 0.18462,13.35925 0.10154,0.10154 0.3099,0.13642 0.46302,0.0775 0.15312,-0.0589 6.35059,-3.52607 13.77215,-7.7048 z m -18.18291,-5.43372 c 0.0403,-7.05776 0.0103,-13.09224 -0.0668,-13.40996 -0.077,-0.31773 -0.36309,-0.64846 -0.63563,-0.73496 -1.14937,-0.36479 -2.70108,-2.58352 -10.61574,-15.17895 -6.94698,-11.05547 -8.99583,-14.05777 -8.99583,-13.18212 0,0.45022 -2.97014,13.94168 -3.16969,14.39791 -0.39049,0.89276 -1.39288,1.2676 -2.34031,0.87516 -1.5096,-0.62529 -1.50245,-0.91171 0.22515,-9.02514 0.86938,-4.08292 1.58068,-7.53686 1.58068,-7.67542 0,-0.13856 -0.14882,-0.24714 -0.33072,-0.24128 -0.25259,0.008 -16.30496,8.9873 -17.83623,9.97701 -0.28852,0.18648 -17.551787,45.33466 -17.551787,45.90274 0,0.14464 0.23101,0.20257 0.51336,0.12873 0.77754,-0.20333 26.034877,-14.46303 26.362387,-14.88358 0.15682,-0.20137 1.16098,-4.49087 2.23146,-9.53222 1.33772,-6.29984 2.10261,-9.36475 2.44606,-9.80138 0.90581,-1.15155 2.6623,-0.73689 3.1907,0.75324 0.0902,0.25436 -0.66938,4.36202 -1.68796,9.12812 -1.01858,4.76611 -1.81842,8.9633 -1.77743,9.3271 0.065,0.57663 1.82217,1.65142 13.70058,8.38006 7.49432,4.24524 13.86417,7.69805 14.15521,7.67292 0.52016,-0.0449 0.53041,-0.26396 0.6025,-12.87798 z m 63.490749,11.44323 c -0.341862,-1.21835 -16.9532838,-44.71879 -17.2595998,-45.19783 -0.333733,-0.52191 -17.5455492,-10.43081 -18.1183892,-10.43081 -0.1499,0 -0.27255,0.0914 -0.27255,0.20321 0,0.43288 8.4818942,40.17248 8.6701952,40.62183 0.201266,0.48029 26.0769718,15.23949 26.7486778,15.25713 0.219154,0.006 0.310412,-0.1729 0.231666,-0.45353 z m -60.291829,-29.63333 c 0.3949,-0.40018 2.84654,-4.12088 5.44808,-8.26823 2.60154,-4.14734 8.59707,-13.67234 13.32341,-21.16666 9.283497,-14.72042 9.941738,-15.827 11.132707,-18.71547 1.5262062,-3.70151 2.1873822,-6.94344 2.3345642,-11.447027 0.157083,-4.80655 -0.231709,-7.6062 -1.641364,-11.81933 -1.7299382,-5.17039 -4.2105872,-9.18398 -8.0727772,-13.06144 -12.93738,-12.98849 -33.3497,-13.37693 -46.79025,-0.89039 -5.23841,4.86658 -8.99853,11.77557 -10.20969,18.7597 -0.53126,3.06349 -0.53369,8.64073 -0.005,11.671997 0.5144,2.94976 1.64067,6.33451 3.02195,9.08174 1.45799,2.89979 28.15917,45.24307 28.99912,45.9874 0.88984,0.78854 1.58768,0.751 2.45932,-0.13229 z m -5.6535,-39.39819 c -8.21951,-1.75368 -14.71149,-7.9652 -16.82504,-16.09816 -0.76433,-2.941167 -0.76433,-7.642157 0,-10.583327 3.31898,-12.77147 16.73112,-19.70418 29.11165,-15.04776 6.34794,2.38751 11.5131,8.24693 13.26479,15.04776 0.7562,2.93588 0.7562,7.64744 0,10.583327 -0.70846,2.75054 -2.30276,5.96624 -4.08484,8.23913 -4.99834,6.37491 -13.6231,9.53249 -21.46656,7.85903 z m 10.34721,-4.52362 c 5.43112,-2.01141 9.31242,-6.04651 11.13334,-11.57454 0.59693,-1.812147 0.69723,-2.573437 0.69723,-5.291667 0,-2.71823 -0.1003,-3.47951 -0.69723,-5.29166 -1.8168,-5.5155 -5.65265,-9.51087 -11.13334,-11.59635 -2.0388,-0.77579 -2.3353,-0.81625 -5.98159,-0.81625 -3.64629,0 -3.94279,0.0405 -5.98159,0.81625 -5.48069,2.08548 -9.31654,6.08085 -11.13334,11.59635 -0.59693,1.81215 -0.69723,2.57343 -0.69723,5.29166 0,2.71823 0.1003,3.47952 0.69723,5.291667 1.76502,5.35831 5.66416,9.51414 10.71294,11.41819 2.6393,0.99536 3.57998,1.13359 7.06345,1.03796 2.74613,-0.0754 3.46475,-0.19448 5.32013,-0.88161 z m -8.23055,-3.26022 c -0.93541,-0.13772 -2.49562,-0.68164 -3.79832,-1.32416 -10.26912,-5.06495 -10.26912,-19.518057 0,-24.558337 7.97469,-3.91413 17.38714,0.46424 19.40595,9.02704 1.33394,5.65788 -0.90111,11.447087 -5.63305,14.590707 -3.00291,1.99495 -6.46625,2.78131 -9.97458,2.26475 z m 4.91292,-4.10434 c 6.77449,-1.98097 9.39034,-10.144947 5.0215,-15.671947 -2.43408,-3.07934 -6.61211,-4.42419 -10.34942,-3.33134 -2.77602,0.81175 -4.86065,2.54564 -6.26622,5.21193 -0.66543,1.2623 -0.72711,1.62618 -0.72711,4.28971 0,2.64978 0.0639,3.03144 0.71295,4.261757 0.93826,1.77841 1.86186,2.84898 3.32831,3.85792 2.43118,1.6727 5.52174,2.18853 8.27999,1.38197 z"
           style="fill:#444041;fill-opacity:1;stroke-width:0.26458332" />
        <circle
           r="10.678511"
           cy="-103.91333"
           cx="-41.438736"
           id="path1072"
           style="opacity:1;fill:#444041;fill-opacity:1;stroke:#ffffff;stroke-width:0;stroke-miterlimit:4;stroke-dasharray:none;stroke-opacity:1" />
      </g>
    </g>
    <g
       id="g1210"
       transform="matrix(0.54175971,0,0,0.54175971,33.732689,452.71513)">
      <path
         style="fill:#ced6da;stroke:#317aff;stroke-width:0;stroke-miterlimit:4;stroke-dasharray:none;stroke-opacity:1"
         d="m -0.53754574,-605.37357 c -0.59593996,-0.12881 -2.18061996,-0.50877 -3.52148996,-0.84423 -1.34088,-0.33546 -3.64973,-1.21217 -5.13078,-1.94822 -1.4810503,-0.73605 -4.1866603,-2.77271 -6.0124603,-4.52593 -1.82578,-1.75322 -3.99148,-4.42212 -4.81265,-5.93087 -0.82117,-1.50876 -1.83346,-4.37027 -2.24955,-6.3589 l -0.7565,-3.61569 v -80.99492 -80.99494 l 0.73968,-3.53528 c 0.40682,-1.9444 1.29364,-4.62115 1.97072,-5.94832 0.67708,-1.32717 2.66329,-3.90458 4.41383,-5.72758 1.75053,-1.823 4.38413,-3.96839 5.85247,-4.76756 1.4683203,-0.79917 3.8423203,-1.82955 5.2755603,-2.28973 1.43321,-0.46019 5.54439996,-0.97159 9.13594,-1.13643 l 6.5300797,-0.29974 1.7287,0.89395 c 0.95077,0.49168 24.40996,18.80746 52.13149,40.70174 27.72155,21.89428 50.633066,39.8078 50.914486,39.8078 0.28142,0 23.19294,-17.91352 50.91448,-39.8078 27.72154,-21.89428 51.18072,-40.21006 52.13151,-40.70174 l 1.72869,-0.89395 6.53008,0.29974 c 3.59154,0.1649 7.70272,0.67624 9.13595,1.13643 1.43323,0.46018 3.80723,1.49056 5.27556,2.28973 1.46832,0.79917 4.10194,2.94456 5.85246,4.76756 1.75053,1.823 3.73676,4.40041 4.41383,5.72758 0.67708,1.32717 1.5639,4.00392 1.97072,5.94832 l 0.73968,3.53528 v 80.99494 80.99492 l -0.75651,3.61569 c -0.41607,1.98863 -1.42836,4.85014 -2.24953,6.3589 -0.82117,1.50875 -2.98458,4.17544 -4.80757,5.92597 -1.823,1.75054 -4.3778,3.72521 -5.67735,4.3882 -1.29955,0.66299 -3.4888,1.5679 -4.86499,2.01092 -1.3762,0.44301 -5.47702,0.94178 -9.11293,1.10833 l -6.61077,0.30284 -2.59931,-2.15621 c -1.42963,-1.18593 -24.66288,-19.56603 -51.62945,-40.8447 -26.96657,-21.27865 -49.65756,-38.96641 -50.42442,-39.30611 -0.76687,-0.33972 -24.240586,-18.19398 -52.163876,-39.67613 -30.51688,-23.47752 -50.87094,-38.78996 -51.02371,-38.38535 -0.13975,0.37022 -0.31427,36.51117 -0.38775,80.31323 l -0.13361,79.64009 -5.6885697,0.0812 c -3.12871,0.0447 -6.17617004,-0.0242 -6.77212004,-0.153 z"
         id="path1183"
         inkscape:connector-curvature="0" />
      <path
         style="fill:#f24235;fill-opacity:1;stroke:#f24235;stroke-width:2.2420001;stroke-miterlimit:4;stroke-dasharray:none;stroke-opacity:1"
         d="m -4.059037,-607.67779 c -1.63885,-0.52987 -4.01517,-1.49653 -5.28069,-2.14818 -1.26553,-0.65162 -3.63796,-2.52177 -5.27204,-4.15586 -1.63411,-1.6341 -3.50424,-4.00651 -4.15588,-5.27204 -0.65163,-1.26552 -1.61829,-3.64184 -2.14816,-5.28069 -0.52984,-1.63884 -1.01079,-2.61403 -1.06876,-2.16708 -0.058,0.44698 -0.29079,-0.52821 -0.51733,-2.16708 -0.22656,-1.63884 -0.41192,-37.96448 -0.41192,-80.72361 0,-42.75915 0.18544,-79.08479 0.41192,-80.72364 0.22654,-1.63887 0.45933,-2.61405 0.51733,-2.16708 0.058,0.44695 0.53892,-0.52823 1.06876,-2.16708 0.52987,-1.63885 1.49653,-4.01517 2.14816,-5.28068 0.65164,-1.26553 2.5235,-3.63967 4.15968,-5.27585 1.6362,-1.6362 4.13052,-3.56008 5.54293,-4.2753 1.41242,-0.71523 3.89221,-1.69329 5.51065,-2.17349 1.94851,-0.57811 5.01374,-0.87306 9.07322,-0.87306 h 6.13059 l 51.82084,40.93066 c 30.66291,24.21908 52.125627,40.81373 52.567297,40.64425 0.41054,-0.15761 23.90064,-18.57634 52.20024,-40.93068 l 51.45381,-40.64423 h 6.13206 c 4.06082,0 7.126,0.2949 9.07468,0.87306 1.61844,0.4802 4.09824,1.45826 5.51065,2.17349 1.41242,0.71522 3.90673,2.6391 5.54293,4.2753 1.63619,1.63618 3.50804,4.01032 4.15967,5.27585 0.65164,1.26551 1.61831,3.64183 2.14816,5.28068 0.52985,1.63885 1.0108,2.61403 1.06878,2.16708 0.058,-0.44697 0.29078,0.52821 0.51733,2.16708 0.22655,1.63885 0.41191,37.96449 0.41191,80.72364 0,42.75913 -0.18536,79.08477 -0.41191,80.72361 -0.22655,1.63887 -0.45935,2.61406 -0.51733,2.16708 -0.058,-0.44695 -0.53893,0.52824 -1.06878,2.16708 -0.52985,1.63885 -1.49652,4.01517 -2.14816,5.28069 -0.65163,1.26553 -2.52348,3.63966 -4.15967,5.27584 -1.6362,1.6362 -4.13051,3.56008 -5.54293,4.27531 -1.41241,0.71522 -3.89221,1.69329 -5.51065,2.17349 -1.91343,0.56772 -4.99195,0.87306 -8.80197,0.87306 h -5.85936 l -0.13722,-80.54304 c -0.0964,-56.58598 -0.30955,-80.60051 -0.7166,-80.73619 -0.31867,-0.10616 -23.7231,17.60942 -52.00986,39.36808 -28.28676,21.75866 -51.55237,39.5612 -51.70136,39.5612 -0.14898,0 -23.407247,-17.7969 -51.685057,-39.54864 -28.27777,-21.75177 -51.6127,-39.54867 -51.85534,-39.54867 -0.24266,0 -0.69357,0.47157 -1.00202,1.04792 -0.37931,0.70874 -0.56083,26.83721 -0.56083,80.72364 v 79.6757 l -5.82402,-0.0292 c -4.03490997,-0.0202 -6.73939,-0.3251 -8.80375,-0.9925 z"
         id="path1177"
         inkscape:connector-curvature="0" />
    </g>
    <g
       id="g916"
       transform="translate(-110.79427,-261.27604)">
      <path
         style="fill:#cccccc;stroke-width:0.27647179"
         d="m 422.59104,317.20651 c -0.68427,-0.13265 -2.13281,-0.6791 -3.21899,-1.21433 -1.18727,-0.58505 -2.56893,-1.56721 -3.46448,-2.46277 -0.8193,-0.81929 -1.84079,-2.13483 -2.26998,-2.92341 -0.42921,-0.78858 -0.95409,-2.26409 -1.16642,-3.27891 l -0.38605,-1.84513 v -41.33274 -41.33273 l 0.38605,-1.84514 c 0.21233,-1.01483 0.73721,-2.49035 1.16642,-3.27894 0.42919,-0.78854 1.45068,-2.10409 2.26998,-2.9234 0.90147,-0.90146 2.26937,-1.87198 3.46448,-2.4581 1.08618,-0.53265 2.64502,-1.09274 3.46408,-1.24459 0.81906,-0.1519 2.76487,-0.27614 4.32402,-0.27614 h 2.8348 l 1.62012,1.19731 c 0.89108,0.65848 12.74964,9.9894 26.35237,20.73535 13.60273,10.74595 24.80523,19.53809 24.89445,19.53809 0.0892,0 11.29172,-8.79214 24.89445,-19.53809 13.60273,-10.74595 25.46129,-20.07687 26.35236,-20.73535 l 1.62013,-1.19731 h 2.8348 c 1.55914,0 3.50495,0.12424 4.32402,0.27614 0.81907,0.15185 2.3779,0.71194 3.46408,1.24459 1.19512,0.58612 2.56301,1.55664 3.46448,2.4581 0.8193,0.81931 1.84079,2.13486 2.26999,2.9234 0.4292,0.78859 0.95408,2.26411 1.16641,3.27894 l 0.38605,1.84514 v 41.33273 41.33274 l -0.38605,1.84513 c -0.21233,1.01482 -0.73721,2.49033 -1.16641,3.27891 -0.4292,0.78858 -1.45069,2.10412 -2.26999,2.92341 -0.90147,0.90147 -2.26936,1.87201 -3.46448,2.45811 -1.08618,0.53266 -2.64501,1.09274 -3.46408,1.24461 -0.81907,0.15187 -2.6615,0.27614 -4.09428,0.27614 h -2.60507 l -2.12634,-1.62688 c -1.16948,-0.89479 -13.01241,-10.2353 -26.31761,-20.75668 -13.30521,-10.52138 -24.45158,-19.23407 -24.76974,-19.36154 -0.31814,-0.12747 -12.26172,-9.21273 -26.54129,-20.18948 l -25.96283,-19.95772 -0.13823,40.60056 c -0.076,22.33031 -0.23889,40.75608 -0.36192,40.94615 -0.15811,0.2443 -1.08998,0.33671 -3.17942,0.3153 -1.62566,-0.0167 -3.51561,-0.13882 -4.19988,-0.27147 z"
         id="path1171"
         inkscape:connector-curvature="0" />
      <path
         style="fill:#444041;fill-opacity:1;stroke-width:0.27647179"
         d="m 423.29205,316.92906 c -0.90696,-0.13482 -2.53859,-0.6676 -3.62586,-1.18393 -1.28987,-0.61256 -2.52917,-1.49112 -3.56622,-2.52818 -1.03917,-1.03916 -1.9156,-2.2763 -2.53169,-3.57363 -0.51828,-1.09133 -1.06329,-2.72296 -1.21114,-3.62584 -0.16536,-1.00983 -0.26882,-17.12336 -0.26882,-41.86826 0,-24.7449 0.10346,-40.85845 0.26882,-41.86827 0.14785,-0.90285 0.69286,-2.53452 1.21114,-3.62586 0.61609,-1.29729 1.49252,-2.53443 2.53169,-3.57358 1.0386,-1.03865 2.27101,-1.91186 3.5564,-2.51995 1.14858,-0.54339 2.77227,-1.04573 3.90232,-1.20728 1.06442,-0.15217 2.88596,-0.27916 4.04788,-0.28219 l 2.11257,-0.006 26.42578,20.87366 c 14.53418,11.48047 26.55681,20.87359 26.71697,20.87359 0.16016,0 12.18279,-9.39312 26.71697,-20.87359 l 26.42578,-20.87366 2.11257,0.006 c 1.16192,0.005 2.98346,0.13002 4.04788,0.28219 1.13005,0.16155 2.75374,0.66389 3.90232,1.20728 1.28538,0.60809 2.5178,1.4813 3.5564,2.51995 1.03917,1.03915 1.9156,2.27629 2.53169,3.57358 0.51828,1.09134 1.06329,2.72301 1.21114,3.62586 0.16536,1.00982 0.26882,17.12337 0.26882,41.86827 0,24.7449 -0.10346,40.85843 -0.26882,41.86826 -0.14785,0.90288 -0.69286,2.53451 -1.21114,3.62584 -0.61609,1.29733 -1.49252,2.53447 -2.53169,3.57363 -1.03508,1.03508 -2.27538,1.91492 -3.5564,2.52282 -1.30061,0.6172 -2.71636,1.03362 -4.1788,1.22913 -1.21647,0.16261 -3.02045,0.25719 -4.00884,0.21017 l -1.79706,-0.0855 -0.13824,-41.05607 -0.13824,-41.05604 -0.37297,0.0783 c -0.20513,0.0428 -11.95961,8.99232 -26.12107,19.88733 -14.16145,10.895 -25.9994,19.85373 -26.30655,19.90826 -0.39684,0.0704 -8.0991,-5.70485 -26.61489,-19.95646 -14.33104,-11.0306 -26.1809,-20.05563 -26.33303,-20.05563 -0.18293,0 -0.30031,13.92688 -0.34662,41.12517 l -0.07,41.12518 -2.35001,0.0402 c -1.2925,0.0222 -3.09206,-0.0699 -3.99901,-0.20482 z"
         id="path1169"
         inkscape:connector-curvature="0" />
    </g>
    <path
       inkscape:connector-curvature="0"
       id="path1017"
       d="m 646.63923,226.47013 c -11.5828,-1.41102 -22.1961,-4.7875 -31.3963,-9.98834 -1.2801,-0.72363 -2.3279,-1.37918 -2.3286,-1.45679 -6e-4,-0.0776 1.2886,-0.0969 2.865,-0.0427 6.2538,0.21463 14.2935,-0.98257 20.654,-3.07561 6.3697,-2.09607 17.3976,-8.21097 17.6288,-9.77508 0.077,-0.5228 -0.1433,-0.60495 -2.4025,-0.89468 -8.846,-1.13445 -16.322,-5.6782 -21.0609,-12.80036 -1.2478,-1.87531 -3.292,-5.73419 -3.2916,-6.21366 0,-0.0422 2.0637,-0.0981 4.5861,-0.12413 7.4275,-0.0767 9.9668,-1.09873 5.8,-2.33428 -9.8256,-2.91356 -17.541,-10.89373 -20.1255,-20.81633 -0.4812,-1.84743 -1.0771,-6.29643 -0.8709,-6.50259 0.076,-0.0763 1.0906,0.25749 2.2539,0.7418 2.3454,0.97637 5.8739,1.86354 8.5663,2.15379 1.5216,0.16403 1.7879,0.12287 1.9508,-0.30154 0.1335,-0.34805 -0.051,-0.66167 -0.6333,-1.07449 -1.4297,-1.01407 -4.9214,-4.49543 -6.1657,-6.14749 -2.332,-3.09602 -4.3769,-7.72288 -5.284,-11.95599 -0.5474,-2.55426 -0.463,-8.8517 0.1547,-11.54345 0.6168,-2.68806 2.1912,-6.95166 2.8546,-7.73091 0.039,-0.0458 2.4676,2.31186 5.3969,5.23922 10.6828,10.67575 21.8352,17.43014 35.6953,21.61867 5.7436,1.73569 14.512,3.28203 18.6107,3.28203 1.9475,0 1.8205,0.37614 1.3733,-4.06734 -0.9058,-8.99983 2.5304,-18.19192 9.0824,-24.29599 2.3101,-2.15225 4.409,-3.54238 7.6774,-5.08487 4.2979,-2.02836 6.602,-2.5104 12.0502,-2.521 3.9299,-0.008 5.0505,0.0908 7.1797,0.63084 4.4325,1.12417 9.2678,3.73061 12.6423,6.81474 1.0761,0.98354 1.8043,1.43029 2.3313,1.43029 2.0678,0 9.8225,-2.55311 14.1469,-4.65762 1.6884,-0.82166 3.118,-1.44813 3.1768,-1.39214 0.1771,0.16863 -1.847,4.25695 -2.8198,5.69533 -1.6332,2.41499 -4.0161,4.94418 -6.53,6.93086 -2.4643,1.94758 -3.0036,2.7369 -1.8699,2.7369 1.3576,0 7.7975,-1.48635 11.009,-2.5409 1.8927,-0.62152 3.4851,-1.08628 3.5385,-1.03281 0.2043,0.20424 -2.8522,3.96333 -5.3464,6.57549 -1.4322,1.49991 -3.8104,3.69727 -5.285,4.88303 l -2.6812,2.15593 -0.178,5.63352 c -0.2661,8.42052 -1.3789,15.32982 -3.6752,22.82 -4.3708,14.25665 -11.8143,26.51994 -22.2884,36.72041 -6.5244,6.35404 -12.1874,10.34705 -20.425,14.40197 -7.5494,3.71615 -15.2949,6.08764 -24.5445,7.51495 -4.7849,0.73837 -17.3417,0.9615 -22.0222,0.39132 z"
       style="fill:#444041;fill-opacity:1;stroke-width:0.28222221" />
    <path
       inkscape:connector-curvature="0"
       id="path1049"
       d="m 698.64243,52.547988 c -22.0736,-8.77779 -38.5614,-28.09494 -43.7111,-51.2119002 -2.1963,-9.8596399 -2.4948,-17.3984998 -1.0473,-26.4540298 2.571,-16.08468 9.2248,-29.23614 20.492,-40.50332 8.3518,-8.3518 17.1443,-13.80724 28.1081,-17.44001 7.7941,-2.58254 14.0154,-3.56552 22.5662,-3.56552 8.5308,0 14.7729,0.98339 22.507,3.54577 10.9948,3.64271 19.8215,9.11402 28.1672,17.45976 11.2672,11.26718 17.921,24.41864 20.492,40.50332 1.3813,8.64118 1.1769,15.5937798 -0.7388,25.12873982 -4.2717,21.26112018 -18.4765,39.88834018 -37.982,49.80669018 -6.7267,3.4205 -11.0215,4.70841 -12.702,3.80905 -1.2177,-0.65173 -1.2508,-0.98404 -1.4177,-14.24576 -0.1365,-10.84428 -0.2309,-12.94743 -0.6459,-14.39333 -0.6097,-2.12402 -1.9049,-4.92738 -2.8476,-6.16339 -0.3966,-0.52 -0.7211,-1.00826 -0.7211,-1.08503 0,-0.0768 1.1112,-0.29772 2.4694,-0.49099 20.2955,-2.88806 30.3124,-15.1855202 29.6218,-36.36603 -0.1532,-4.69818 -0.4598,-6.46486 -1.7159,-9.88616 -0.7339,-1.99886 -2.3469,-4.86989 -3.8888,-6.9218 l -1.4496,-1.92896 0.5039,-2.02215 c 0.6432,-2.58127 0.8702,-7.73806 0.451,-10.24634 -0.1779,-1.06469 -0.6616,-3.05922 -1.0749,-4.4323 -0.8732,-2.90111 -1.2197,-3.16388 -3.7966,-2.87886 -3.8843,0.42961 -9.5436,2.73089 -14.6693,5.96508 l -2.4662,1.55613 -2.3452,-0.54934 c -5.9466,-1.39293 -7.9551,-1.59651 -15.7507,-1.59651 -7.7879,0 -9.8056,0.20404 -15.7239,1.59012 l -2.3183,0.54296 -2.3384,-1.46758 c -6.5973,-4.1406 -14.6423,-6.91588 -17.1921,-5.93074 -0.6057,0.23402 -0.8579,0.66666 -1.3682,2.34645 -1.5629,5.14553 -1.8229,10.65618 -0.7124,15.10093 l 0.5052,2.02215 -1.45,1.92896 c -1.8948,2.52057 -3.8066,6.37957 -4.7308,9.54898 -0.625,2.14372 -0.763,3.27623 -0.884,7.25898 -0.6276,20.6574498 8.8124,32.83717 27.9731,36.09139 1.8827,0.31975 3.5888,0.63317 3.7914,0.69649 0.2601,0.0813 0.1074,0.49434 -0.5196,1.40566 -1.1842,1.72114 -2.4158,4.49717 -2.6675,6.01231 -0.2583,1.55494 -0.8616,2.15312 -2.7395,2.71663 -2.9214,0.87657 -5.4171,1.12096 -7.7475,0.75866 -4.2749,-0.66461 -7.3578,-2.87921 -10.3535,-7.43756 -2.7198,-4.13844 -6.1798,-6.7396 -10.0349,-7.54391 -2.5005,-0.5217 -4.8306,0.18487 -4.8277,1.46394 0,0.85857 0.8925,1.8409 3.348,3.69296 3.2569,2.45654 5.0896,4.91041 7.0596,9.45235 2.4023,5.5388 5.5374,8.52247 10.9014,10.3748 2.0432,0.70555 2.6396,0.78043 6.3473,0.79689 2.2508,0.01 4.829,-0.0925 5.7295,-0.22783 l 1.6373,-0.246 -0.085,6.83256 -0.085,6.83256 -0.7919,0.68066 c -1.2847,1.10432 -3.0556,0.9338 -7.1304,-0.68658 z"
       style="fill:#444041;fill-opacity:1;stroke-width:0.28222221" />
    <path
       inkscape:connector-curvature="0"
       id="path1158"
       d="m 393.43293,269.73453 c -0.301,-0.12144 -0.5473,-0.55009 -0.5473,-0.95241 0,-0.40236 9.4566,-10.18652 21.0145,-21.74264 l 21.0146,-21.01115 12.6109,12.58346 12.611,12.58344 h 1.4977 1.4978 l 12.611,-12.58344 12.611,-12.58346 21.0145,21.01115 c 11.558,11.55612 21.0145,21.33565 21.0145,21.7323 0,0.39667 -0.3119,0.84075 -0.6926,0.98696 -0.3812,0.1464 -31.0717,0.25031 -68.2015,0.23118 -37.1298,-0.0217 -67.755,-0.13402 -68.0561,-0.25549 z m -6.9804,-6.38786 c -0.195,-0.30099 -0.4128,-18.57746 -0.4846,-40.61431 -0.072,-22.03683 -0.012,-40.90445 0.1367,-41.92798 0.1938,-1.35138 0.4696,-1.86105 1.0079,-1.86105 0.4075,0 10.2974,9.5582 21.9772,21.24044 l 21.236,21.24046 -21.2471,21.23492 c -11.6859,11.67921 -21.4775,21.23494 -21.7592,21.23494 -0.282,0 -0.6716,-0.2462 -0.8665,-0.54742 z m 127.7561,-20.67293 -21.2584,-21.2584 21.2326,-21.23601 c 11.6779,-11.67978 21.5537,-21.236 21.946,-21.236 0.4483,0 0.8148,0.50787 0.9869,1.36842 0.1505,0.75264 0.2735,19.1522 0.2735,40.88801 0,21.73579 -0.1205,40.12278 -0.2679,40.85999 -0.1474,0.73726 -0.5799,1.46014 -0.9611,1.60641 -0.4981,0.19084 -6.6786,-5.7196 -21.9516,-20.99242 z m -87.5171,-34.06334 c -18.383,-18.36403 -33.6331,-33.76765 -33.8892,-34.23023 -0.3672,-0.66365 -0.2973,-0.96394 0.3305,-1.42317 0.6539,-0.47839 12.8775,-0.58204 68.5015,-0.58204 55.6241,0 67.8478,0.10394 68.5016,0.58204 0.6281,0.45928 0.6978,0.75952 0.3306,1.42317 -0.256,0.46237 -15.5062,15.8662 -33.8892,34.23023 l -33.4237,33.38912 h -1.5192 -1.5191 z"
       style="fill:#444041;fill-opacity:1;stroke-width:0.43789032" />
  </g>
</svg>
